<mxfile host="app.diagrams.net" modified="2022-07-19T08:41:43.842Z" agent="5.0 (Macintosh; Intel Mac OS X 10_15_7) AppleWebKit/605.1.15 (KHTML, like Gecko) Version/15.5 Safari/605.1.15" etag="qzRppwysU4jg7pKruoh4" version="20.1.1" type="github">
  <diagram id="dNFCjJeDSTJS6fokeUyT" name="Page-1">
    <mxGraphModel dx="925" dy="558" grid="1" gridSize="10" guides="1" tooltips="1" connect="1" arrows="1" fold="1" page="1" pageScale="1" pageWidth="1169" pageHeight="827" math="0" shadow="0">
      <root>
        <mxCell id="0" />
        <mxCell id="1" value="设备" parent="0" />
        <mxCell id="qsRVk2a8_ZqIA5aBX3Mv-6" style="edgeStyle=orthogonalEdgeStyle;rounded=0;orthogonalLoop=1;jettySize=auto;html=1;exitX=0.5;exitY=1;exitDx=0;exitDy=0;entryX=0.5;entryY=0;entryDx=0;entryDy=0;endArrow=none;endFill=0;strokeWidth=3;strokeColor=#FF8000;" parent="1" source="qsRVk2a8_ZqIA5aBX3Mv-1" target="qsRVk2a8_ZqIA5aBX3Mv-4" edge="1">
          <mxGeometry relative="1" as="geometry" />
        </mxCell>
        <mxCell id="qsRVk2a8_ZqIA5aBX3Mv-7" style="edgeStyle=orthogonalEdgeStyle;rounded=0;orthogonalLoop=1;jettySize=auto;html=1;exitX=1;exitY=0.5;exitDx=0;exitDy=0;entryX=0;entryY=0.5;entryDx=0;entryDy=0;endArrow=none;endFill=0;strokeWidth=3;strokeColor=#FF8000;" parent="1" source="qsRVk2a8_ZqIA5aBX3Mv-1" target="qsRVk2a8_ZqIA5aBX3Mv-2" edge="1">
          <mxGeometry relative="1" as="geometry" />
        </mxCell>
        <mxCell id="qsRVk2a8_ZqIA5aBX3Mv-1" value="" style="shape=image;verticalLabelPosition=bottom;labelBackgroundColor=#ffffff;verticalAlign=top;aspect=fixed;imageAspect=0;image=data:image/png,iVBORw0KGgoAAAANSUhEUgAAAKAAAACSCAYAAADCfcGLAAAgAElEQVR4Ae2dCXgU15Xv7UkmmUySSWZJ5sXjeCYv33iS95K8yeRl3rzJ+iYzyWQmyZdJPtHVQmIxGLPvOxg3XVXdrQUBYhOrBAh1VUlq7UJCK9pXdgzYBgM2NtjYZt/hvO/c7tu6XV1bb1oM+r7LvVXdXV1d9eN/7jn33FtPPfUY/zmUps85vG3PuHzdzzuLer+7Uun6N7GweyJf2O3gC3u2iEpvqVDY3S4W9hznC3suiIU9V8Si7ntiUQ+Ixb3q8kAs6rkqFvZecBX3nBB9PR3u4p5yV3HfNndJn9Nd0j+J9/X8u1jc9w9pZb1/Jygdf5VW1vb5x/jyP34/3Sn1fF+Qu+avlDvKV0qdrzvlrgu83P2hU+m+zSvdIBb3EaiE4l4QirD0kCJiu7AHCHgIn7owMLqKe8Ht6xsoJf3gLj0AntKDpLj8r932+Po+cvv63nH5ek+Lvv5qT2n/0vSy3h88fnflY/iLHQV9f+FUur7nUDqSHd7OLa9IXadcpUfAXXYEXL4DIBT2glPuCi1KNzgDhS/sBnVBAGkJA5ACyYCICokwhhRfHyCAtFBQ00oPQEbFEcjaewJW154CT0nfGU9Jf67L1zfWXX7w+2JZ119+DG/Tx+snCd79X3V42x0OqeP1V6TOqw6p895KuQuwOKROcEhYDxTcHwYh3WcCI8KZKBgplJ7SA4Bgekr67ntK+q65fQfedJf2efiSvq9/vO7cCP01S3e3fGVFQeevX97TsW6Ft/O8WHoI+KI+eEXqhFe8Hf5CwEP42BIKoRUQ1WrIbscEIqOGVBUDJjpowj0l/YAFYcysPAqra06Ap+TAxbSy/s0uX//v0ooPPztCb+HIPG1HQeu/Ly9o63q5oP3u8oL2Ry8XtMOKgg5SguBRANk6BEIK5ACMqI5WYEQzzQLIthMNI6ojBTJQP/L4+u95SvoOpvn6fzcy7+gIOOulu1p+sTy/I2fZnvbLzuIDsELqBARPqyCMZiCiSuqpIgVRF0amn6gPo7+/GK++op4qUhjTyg5CVvWr4C7pu4Z9x/Ty/l85mpo+OQJu7fA9RUWBTyzPb5+xPL/9yvL8NgiWPe2wnClaENJ98YLRrK/IqqC6HZMqohOjYaZpP1FDERmF7LuJnrVDOf6p4XuXh+GZLc5v/v7SXa3bl+9uv/qK3AvL89th2W4GwChgXFHQDq/EQRl1QWScFzWA7PbgwujvM3pK+m+l+frz00v7fzQMb/fwOKUkRfnEkp2tzy/d3dq5wttNgEPotEpQCXVApOqnVw+WKuqb50HwoAOOCzXRWGOYJ62k/6hY1P8dtC7D484Pg7NYmt/xsyU79zcu2d0GS/PbYcmuVli6q1UTPjWQZjCiqdYDEfebwohOjIX+oq4yDodwDgMj9hWxeEr6211lB34zDG7/kJ3C08t37f/akrzWlpelbgIdgqcuUYPI9BHNILQEYhiE6MQMIw/aQl9R3V/MrDoKHl/fQRwWdDgcfzBkJAz2F3uUui8s2tWsLN65/w6q3uKdLaQs2dkCpGiAGFRFC8popopGimgJRm+HyoPWhtHMix5ME632oimMRA1L+++7fX2VDqXnvw02C4P6fTOyqz+9OLdl3OKdfqVbvHM/DBQVhAijEYg6/UPWRJuBaKaMpuYZA95hyhiFKmoM+1HHhTotWGuGdCIc+lODSPuIGOReVXkUPGV9szJ21X52UMEYjC+bl9v8/QU7m08u2tkCC/P2k7Iobz+QEgIiQvlxgTFUGXUVkfGgraiiLowaGTpG49BaMKIiun39b7p9/f8yGFwk/DvmKB2fmb+9ecHi3W1B8CiAtA6CmMcq4tCAGA/zHBdVjGW0RQViCIQafUU2pkhNc2bFUXCXHhRGdLrYjPymZxfmNp9amNsCC3Y0k7IwtxlICagghZDWZjCiOlrqKw6CiV6W3waLd2FphWV72rRHX+JhogcRRlYVMRnCXdJ3LrPiyDcSrlTx/oL5O5rHL85rgYW5+4PwhUGIMJqAONBHpOroN89WQbTiRZv1FdWquDS/DbIrD8Dhs+/BvfsPSTl27jLkNRwnEK5gx581wzihppkO/Q2nUE4QRIwfVh6FNF/fzHgzkpjjATw9f0djzfwdzTB/RxMsCCt+JRypMKLXXtzxOjx89AjUf48ePYK3L18HV1E3kJEXNYh024Iq6vYXI4gr6vYVo3Bc0Flxl/Z0DuthvUU7W5+bt72he0Hufpi/vWmghEGIYMYAYgx9xWA4x8REq1URP5dZ0kdUTw2eehvhLO8+TQLgup60pgetUsZALqOZMlKPWV2betCqvmJYAq1qDBqzul2+vmO8r/+biVGvGI66KHf/t+duabg+b3sjsCUERIQyzjBinzHUTFs30VZhxPcV7D8B9x48VLNmuH3xoxsBNYwmO0cFo2SQPIteNJOhowYRt+MKY3HvLU/pwX+OAZf4fnTOlob/mret8fa87U0wb1ujv5iBuF3LPGso447EOy0ERFREVZB7UV4LpBf3wvHzlw1BM3oR+4gVvWdg6Z42ooiRJ0RgXJGB0UgVEcIAjFoQsiBiTFHXRDPKGOZBEy+6H1wlfY/E4v5x8SUpiqPN29z027lbGx7M3doAtAQhpDBizQAZjSqiyY7eg9YI6VgIche2nTJiK6LXLnxwA4TCruC4tK5ppv1EC86Lbj+RUUQrcUXNADdCyIAYZp79E68euUsODh2Ec3L2TZ63vRnmbG0IFgohrYcSxsWBQHeoiTaGEVUvw9cLJ9/+ICLArLz59r0HUNl3Bpbk+9WQetcERgupYqEJtIwqmmVyM0DqKSMfmHAVKYzp5YdBLO5ZEoV2xfaRuVsafzNnSz0ECwMhAkkBpHUYiIwiojpGo4pBRbQQzrHaV8xvOg7ozSby781LV0PUMAREVgG12rF40BZANO0ranjQGLzmfT3jYyMqgk/PyqkbM2db4wB8LIi0zQBJIaR1ImAMMdEWgGRVEUNG7sJuOP3uR4nkLuTYt+7eh/Ke07Bkd2vQLFMQsTYM41Aww2AMV0UrZlpPFU1hZEx0WhlOCOuZFQFG0b11Tm7dt+dsqbs7e3MdzN5ST0pQBSl8tGYgVKtiGIS0v8goYzSqGAKiSZCbqmJRe/z6eiGUWdhoOnoeMLDNwse2TfuKVsI5g+VB+3ofuYoTOLF+9ta6b87evO8mAkcARAhpSTCMYWbaQjjHDMb5uc2Qs/eQBUwS9xY095mlfcE5Lix86rYpjFYcF7P+YizhHGKee+67fN3/Nzp5M/jUpM0Vfzxr875XZ1Hg9OoYQEQTramMCVJFBHDzEAOIphidHquTrBBKBNEUxljMcwSjLVpOC1/Yc86j9H3BAKfIX5q5qXbf7C0NMDNnX7AgjIZABmBEU23FTNM+Iq0HA8YFefth274jJNZ34YPr8HagYJtsX74OZ969olmwz/jq+ctw4vwHYQXHhg+duQSHzrwXKAPtg6cvQceJC4BhHoQPkxpCRl4iyOZOOIwWHBd1fNHt68d1dfojp0znEzM21syevbUxCJ4WhFZAtAKhuq+oqYqMIoaZ5sBoS/iIS+jQH2ueF+Q2w+xtjTBr60BJK+6GdZUHSFlfeQA2VLHlIGyoOggbsVTTcgg2VoeWTXsPA5YcLDWHIbviAGCYZ2FeC6kxAE4TaEMApEBGAOLLiVZFCyCyTgtCKBb3OHWQsr57zraaP5uxqfbejE21QAqjgCyI2KaKGBOMqJaM80LVkNbRqGIkMGJoR2k9BYkKxFT0nAbMCKfgadWaMCKUDJDq/qF6O2YTHYe+Iq4o5i7u/e/WaQt7Jzw9fUPNqZk5dX74KIRYJxpEBkK1KmpCqBptCVNGi04LKmNVz+mEeR2tx98GTNaIR5qYlSkFYalhNIRDa5O+otVUMa1QDi5txxd2Xc6ufv3TYWhZ2TF9Q82s6RtrYPrGWphBCwshbefs0wUyElXU7SsawKhpomOEsTKBALYcexvm5+4Pme9iBUZUSk1ltKiKpopowYO2CmPY8J/c7bDCW8h75mR1fGb6xtorfgD9EFoBUW2W2W0KYzB0o/akzTzoBJjn8HzFpsQqIAK4ozkEQJqVEzWIDISWVDEOw366AW5ND7rrvqOi7y9CADPbmL6xpnLm5joYABAhpKXWkiqy8KnbVmHUVUUVjJbMNOO8GAW5C1tPJswEl3e/QZIqzKaffixgDDgufFEv8EqXda94RnbN/5q6fi9gGYCOwqeuTWA06SsimIZOC6pkIIxD6xBvGs0zAyN1Vthas8/IwBjSX9zRBHO3NcLmmkOAIEotJ3SL3HICSGk9AXLrSf0SOEZu/VEyC5DO+rM6rWDZbnOnRdNEM8r4stkKEWiCTZQxPBkifOhPN3lW7gJB7vmxmfCR16eur9lOAcR62oYaUoxhZPqJ2F+k/UNaG/QTKYRWQNSEMAAo6z1bUkRVX1Gtio6CdlBaTxAQldaToFnaTkIhKaegsN1fSjtfh8re01DRe5rU+Pry3a0B+MITaIOTrAzmQlMzreU1s/vM+olWTHTkS9tZBFHqrDAFcEZ29Zemb6oj6sdCyLYRyJhgRChNlNGqiQ5RQwoio4gUSlYRrTguy3a1wLVbd+Nmiq/evAMztzT450EbpIlZgRHNsxUTnXAYvVoT8/Vh9JQeBtN0/qnrK33TNtTClHXVpLDgqduDBaKZ0xKtKhqBuHx3C1y/dS9uAOI8kRlbGoKzAIfT9FN1DFG9Hd1oS/gKEZhz6PR2dumq4KTVNV+ZvK76JoVPXasBpNvTNvjNtJkqxuJFU0U0NNNmQ38RhHMSAuDm+iCA7HTUuMHIjKywZpltx0MVTUM6YbHFEBhv81K79iLrk9ZVJqmhU29T6PRqK6o4WCDGYp6X72qB67fjp4CY9TIjp97SpHw2V9Hf1phopdNfHD7mWXtZu5VyNzi8nZM1VfCl7KqGydnVMDm7ihQ1fOptPQjpfnMYsS/JOC/UYWHrRPcVVf1F2ldcnNsMH167HTcTfO7SVZi5uSE4HTWYza2Ts4gKSZUxFMjhCGO79qoQdLRFHeSWO4+HAYgTjmduaQrCRyHEWg2eepsCp1ebg8hAuLGWeNzzttaDI78FXHI7CFI7zNvWoOu4UPOs21cMhHIi6Sui8zJvayOsr+iHdeV9pMY2WzZU9sNAOQAbMGlBo2SX95HQDg7zqYsZiBRCrENBNJnbsrMFRKULVpf1Q1ZZH/BSJwl+s+ZY3Y6HeTb0oAMgeiqOAj6mLATCF7MqZqH3y4Kn1VbDp97Wg5DuN4NxUnY1SPtfhQ+u34a79x8QBULzdfbiFZi7JTAmnWhVZPqKC7Y3QeeJC3D+vatwLopS0fMGzNqCyqeehho5jPqqGAojwoqpXnfuPQCc3oIOEHr0ZV1vkGFAKx40whkGJBNXjCWc4yzsxSkHmSEATlpT2U+AW1sZM4QUSgqdVq0Gccr6anhl9344fu49TbP38OEjcCsdwfgimu7prKmmbQZOQ4fFgiqiYm6qPqh5PpHs9Chd/klXYRCGz4NGhYyHKn50447mKR47+z6Z/4JpYVZADIMwiqwcLadlhbfjjSCAs1eXfPGltZUXX1pbCWyZbAFGKyYagdSCkO57aV01VHS9DvdNVh7IKOr09xk31YJbbifmGU20v3SAW+6ABdsbYMamgaRZOgRoaqY1PGg06ZvjAGB6UXdUs/5CYAxMtKK5i5i/iIVMDsP21kaYu70RFuY1w9JdLfDhdf3+K06WL+16nWTl0AB3PGC0oooMjB84cpv8K7K+uKrq+UlrKm+z8LHteIFIgaP1S9lVIHhb4dRb1lYeSC/qhGV5TXDn3n3N/910Z3pRV1AdRakd8HNYMoq6IKO4CzKLuyGtsBPmInQGCREIbXwA7ApOzFePtmCuIu5DEy0qneAKli5wKf6yIr8NcNUJVMbdTcfh6s27cOvOfbgZKHfvP4QHDx/BzTv3oLrvDHkfdmHM/o6fu0wysjFBFkGkMKr7huptM1W0BmL7A2d+x7eJCk5YU/Zj7Hu9uKYSJgUKCyDbjheME9dUQEXXa6aqx17EVcVdwHtbycVm96vb2Id8cW0VtBw7T+b44s0JLw8BU+Nnb/FPrCImHc06U6ZurIWNlf3qw0e87ZI7Ydbmepi1JbSgeiF8i3P3w7Vb98i1QCugLg8ePIItNYcJhEfPvm/4/QgmquH7V28Zvo++iGqI/UXMUaQQ0jpqVbRgpl+RurAf+HsC4ItrK2ZNyq4iACKEtCCMLHxsm4BowUTT/iCtJ6yugDSlHc5dukKvgeU6EgBfWF0JFy5fMzz2Ox9cJ4kMa8t6yQ3Dm6cu2JHHP6xRec0Lvs9f8Obi3/Vbd+HKzTth5fj594nyZZebQ15/8Kw1AO/eJ1MLrAJIThAATr71AWT4ejRBRCDVKqi1HaaMBk4LPmptRUGHyw9gVvm2SWsRvAqmhIIYDxjR9DYefJP+5ojrzKIuYrJRzYz+pOZX4YWsSnjrvatGbyOTjtAE7+s/Y/g+fHFpXjPM2VIXnC5A44Vh9bYGEnLBMI6VGXeC1AGrS3tNv7/x8Dlixk0VMEoA6Qlg35AqoFZtRRURTjMYMVN7ubfVn5wwcXVFE4FvdQW8SIsKRgSQmuiXjJQRg9gqZcRjZxZ2klAG/aHR1GtLe2DlnhZTE+xtPg7jsypMv+/C5eskFcwKgEtymzT7izjaohVfxH05FhwYUe4A7LOa/REAtzWCFQBxxOXSRzfMDqn7+sm3P4RVJb1kdVstCHEfAdFEGRHCMBipKhZ0wLI97Sf8fcDV5acnri4HWoIQIowqECmECKSRKqK5Rg8Z37+7/qjuj43khexEAJizD2otKOBiLQCpA6PpQSOAB0x/Hu9FJ6nb9H0IIOYpWgFwek494NqEsfxh7BWTZ82ycxBEK6oYpogIZ37bTWqCr1L41LUZjCyQbB+RtgtbXo3lOoR8NnEAmk9CWrTDPy3VajgHnQ4rAAreduKRh/xQjY2IANxUFzOA9BTe/fAGvFLQHvogIZ1x6KAymqw+y6qiXwGzymAiLYwSsjBGA+Lk7Ep4/UL8ljnLqeoHx+795ia4KQITvGkf1PaZA7gwACCbPGsU6EYAN1lQQKe3HTyFnfR+69YI4JxtDXD0rHagnn4QV1qYunEf6d/SfbHWdQffJPNYaCa3mSpaBRFVMQjghKwyoCWeMGYVm/dvrF6gnMo+cOSbA1jQeBzGZpZb6gPO3FQbMYA0uG0E46ycOthUZe7dRgTg1gY4+qYxgLfjDCCGhNyFXRrZ3P6kiFhhJAC+sGoAPgoh1pZBDOknYr9xwIOeuLoCZmzYC0fOXAIcTovlL6eyPzIA3zfxgi9fB6sALggkQ1jJ5EbP2g+geR/QWdAGHsVcARsOnSMeuBUAp2zYB+hgxfp368492LT3EMlhpEkRkSREqB0Yrb4iAXD8qrK7CCEtLIS0bRlGHccFQUxX2gFT06P9215zEF7Z1Wxqgvc0HvMrYDwBJEN8zFwXkzkuOJl/U5U1ANMsAoie9RELCjhlQy2ciXGtQwzSO6UOwAWc2ORZqwkRQWU0WQrZD2Bm6aXxDICJAhEhRHXsPnlB8zkbZmDuqD0IKywAWNB0DMZklML594yD3agSOHmqxkIfkN/TBst2NsNyVVm2az8s1yj43rz6I2Y/CVAB3RYBxJEUqwCefie6xTYxa2Z3w3Eyf8UoKYIqoqU0MV2npe1hAMCSQ+Mzy2B8Zqm/JBhGHIYT9rTCtZuRTfrZURMA0CRpwdd+AlIzSuFtCwo4fUMNiFIbXNHJHqEE+cde75HxVhxztVLoKAo9hrrG0aA5m+vAigKiE4JOjyUA19dGtdorrtj1cn4rzN8emioWBFFDDak6UiBNTXQojBcJgONWlZWi6gUBHAQQ0cN+aW0VdLz6luW+4e6GI7A8r8l0/BgBHL+qHMo6TpE8uJu378ENpuA2Do81HT4LOJ8FhwkxcE36rmurYBIWHBtfWwXoecf6t3B7I8nQwSwdtg85ZX0NCW4vzWuCD67dDhsDpmPCCHte3RECoFkf8M7d+zB5fS0cP2c8Zsz+Jsyc2dVwDGZvZfMWQyEMycyJOIs7NF8RzTOJH+5u7fQDmFnqHp9ZHg4gBRHrBKoiv6cFbt42znDBC5bfcASmra+G1wxWsP/o+m2Yt2UfYKYNBsLnbN5HElkxmTWkbN5nmCKGw4ZT1u+FrXtjzwdkQzh6HvSC7Y3ExKPpDi37YUlec3A55KYj51h2wtpvvnsFJq+vsQxg2/G3YenOFpi3zejJVgYwRqmKS8hDHlty/QB6yrjxqypgXEbABLPgqdvxBnFNBUzI8o/CNB8+G3ZB2R0IIMYjx2aUwqQ1FQOZO8zQICofSawNABhLvuLkddWwxUIsjz1HrfZC6sAwybIsiGw4Jyw9TDXagsulrC7tIWliOVUHgS3rKvqALCK6ud4UwIsf3iDJttNz6rRTxeKUPKvntODi7AtzW2YTAMe4y747Lr3kIQLIlvFmQKLZVgFJvWa2NvOg0RzTQPfS3Aa4ckM7l21Pw1FAR4aOsqhr9Ri0GsRIYUQAN8cBwPkUQJq1jXUcYNQag8axafTA24+/pfV/geyrO3gWcKpByJIlekuVBJ75Z2VKgRUzTfuKCOCSvJYfEAAnphU/Oy695Mq49BIgRQWiqTKqIMT+JAsgbZuBiBBOzCqHqeuqoenQm3A3kAqFVw0zWxZsrRtQPVX2NgujFRCtwohOQt2BM3DgjXc1ykXofe0d6DmlXbpPXQAMCU1Zt9e/vB0LoAmERCGjXAIZwXSgk8es7ID9yRPnLwOmfmFf1GhSPq6VE7JeDn3wJCbPWlBG4rTQqQU6/cVFeftvLsgLzA+etLnvD8eml5wbm+7zA0hBxHoIYUQzu3RHA8zOqTVMimDhU7djgXHa+r1k6I8vaAWhoE23iN42EL3t4JK0y/K85tDppzpr56jNMrtNx6B1h/80EiIQMkx2wFAPZn/TZUpozaaShaihxiMzwoCMBEbsJ4b3Fd9ZuL3t80QB8Z8x6SXSuMwyQAhpCSoiBXIIYCT9w6wBEx2anTMw6kIyc5i+oBpE3I4Exnlb6oinrGvHInyh5eg5eCm7OrCmTug01LCFnDbVaq7HTYGkENI6rN/IwOh/TWOReGbmHwJJYZwXaIcBaWSiI4ExrxkW7WyBBbktTUH4sJGa7vvJhLXVMCbdRwqFcEhUEYcBNZIiaD+R1CHDfwNDf5bSxFT5ilp9xYXb6uP6yC6c1jlxTaVqUScTEE1GW6gqhgFIHResdfIVg6tGMCBSCGkdBqFqNbEwVdR8HG+4B710Txcsyt2fHAIgUcG04msUQLZmYQwDMtGqGDGMA6polipmpIoIoNZT0SMUvuDbCYBr1QCyq4wNLxhZVUQgNWFUAak14SrUeRmAMQw+3JHiKcog4KUVB5VQD8R4mOd4e9Ch5jlcFY0SaNXmOd4AohP1QlaFSgFZAGmbAVHttNDtBHrQRBkZVbQEYgTmGfuC83c07dYEcExayT+mphXfS00rBixjaAmY5ZEL44AqUhNtBiN63PH8wxGMCasrg8FvqyuKBReH13JcTDzpeJtoNYyaymgEIzHRjQ8X5jX+TBPAnzqaPjnGXXgh1VMMpARADMKoAtHQNA+hB83GFUNV0TqI+DmXtxXKO1+D8o5T+qXzlP89Xa9BuUbBqafeJn8ohs6HZmtcIUK9SkT4MneMKsYAohWnJdg3ZBf7jK8HfXmq0vQ5TQBx55h03wvjs6r8AFIQsTaBEdWRBTIeJppm5dCaxhPZ2iy2GA2MU9ZVQW7tIcivPwK76w77C7ZNCr5fszQcJRBiJg0Ln7ptFcYhX1HMwEQbqeKiXe04Dzr8kQ02UfoHlsgUT/G7QRVkIVSDqFJEaqJZEEeS04JmefLaKnjjwofxtL7BY2F2DCbAmi1VYhVEQ/M8DD3oudsbb7GccYL3q2Tb5pSq2RdSRGVSiqcYaDGDUa+vaAiihokOy8aJYhw6qIg63jMN7wRDOqpwDoZk3rxonEcYJCrCxr0HD2FWzsDyx3SyvloJ2W1z82xtjcVEDv1Zdly2NixmOeMEaRfZ5kT5il0s+Ev64tQNyudSXEUfpbiLghAijJZA1FBFQxA1wjiRDv2xJpltB2HUiCmGmGYmixsnUr15MbpkTjMecaUELQCtgmgOI9NXpB4zWxt4zxjkNnVazGKKqr4ijScG6luzttYHGfuto+SLnCC/R5izuwrBLihuCiDWqZ6iX49fVQkEQgQxGhg1wjmGMGqoYqQwxjIOjaqI4ZhEAjhzUw1gH5NCp1ezKqhum4OoUkUtxyVOMOolRLCquHAXLjDaOJXlyy5KM+yuIiD7OEGG0WklwKV5n2HfNNpVVB8CYLQgaqhipE5LPMwzqqOZKuL4M06gSsQfzoeZsXFvMF1MDz66Xw2eejvRfUWqiLres5WRFqKadQdZrlIzaj/L8TIgd0EAOVEBm1Mqf+opeJq+mXMXfXe0uxhGU/D06kB/MVoTPVxgpOYbQzArdzdDRmEHZLKlqAMySemETFzurXCg4NIjemVVUSd45DaYvmEv4Bo8JBZJsnn8SbNWM3PUALLbwwJGDSCJ+d1e//8oU1jbnNJOu6ioABQIkQ+SXMr/YN/MuQqXp6aXQbKrEJL1AMT9Q+C0xMM8j8ssgczCdijvPAmtR89B+/HzpLQdOw9Yuk++rVl6Tl2Ag29c1CyHTl8kK73iaq+0vHruPTjx1mWyFiLOWMMJ+/hdaUoHmQpAx6Op+hnVLHjh7QjjithHjNREW0wTm5/bgtNTN7E8jXbkP8sJ8i1Uv1AFFGRAKm1O6QL7AWwnu5Q2AiBCGCiGqjhMYVQP/aFZR0Ubyj9c6WvR9vqgWaYgxkMVEc7woDYd8qO1ieMS22jLUTVLNt57yC4WEvjCAMQdqHLJvDckWE2aiv8AABLZSURBVJjM7/nbZLEQRjMAUhCxTjSMkZpoK8qIMOL70DwO5R8uAoTDfix4Wm0jRaSvhauh/4GTuB+H/gYDRpqZM3c7ribWEBJftgnS9GSPLwifJoC4kxPku+Ozq7/E0mt3KT8Z7SkmECYaxMEc+sP5JVaXCI43qJixvGJnM0m2NcrMUQNJgdOrjUGM0ERHap5z9sGcbU0wK6fexvLzQlrZ5+288lGAryCE5D3qnQGJPDNp0uY/ZA+SLHo9KemlxFQjhLSwakjbqIpWlNHMcRkMGDH2V9F1Kt58GR6vrOMkWbIEve5Yk2f1QMT9ZjBGpIpaMKqSZ3F54Jkb921jucG2jZf6k11FQfAoc5oA0hdtorRRfSBOUPbigbC/GIQtACPdZmtDCBnnxQxEMtoSh3COnnkem1ECYkEL3GDmURgSFOWLOAHeuacFcKlimpmjBWBQES0kz1rpL5qBaB5bZPqKWiBiXJGsiVPbq2bGxisC9XopW7Q2BJAEqJ0FKewBkxzKpzhR6aIQ4oGHBMY0f+Y2HX+mtWGgW2PUhY0vjk0vganZlVDT+3qUeBl/rKT9JExdXw0TcBZgcAhwYOVZS0Ay003VppluGymiuSpae/CkehwaR1Jm5Ow7PnVDaKZLslv+VwqbVm0IIH7Ajk6JU/keC+FPHY5P2gXlDVQ6CiBb434z86wZ4GYU0fLQn8ZoS6xOC/Z1UQ0/vGZtpXlj7ABwDu7yvEYYl1kanH46ACCmiFlPEwsqowmIZhCagYiKadk844oPG2ou4vNmWE7QebUL/nifFny4zxRA/weVS+Nym/6IPfgYl+/P7YJ0mqhkQAVZCGmbhVHLeTE00XEI50QL47gMvxru7YlNDSWSC1gVnHxPkyFCxqKDajh8YdQ30eTZfhfnbGoIffbbU089xYnKaT3w6H5LAKJTYhPk86Md+X/CQvhrR8Ufc4J0itNRQhZCFkRsq4shiIwymvUV4+20pKb5YG1JV8RPzsRHROBoCga6yfBfBAkRA+o43MxzqAeNs/mmbdj71tQNgSceBeAY58j9I05QDms5HRQ8WlsCkL55lCB3swBiO8mjfMEmSMdwYJm8z0ANWSDNTLQhkBaH/vRgjFQVsW84JbuSTJY3M7f4OqreS2sqyHqLdHjPyjh0MEWMyc4ZrjBO37gPpq+vOTd5U+2X1UzYBamKMmNWRwQgBhHtgrwfCVd/KScqlWiOg19oBiIdUTHxoHVBjMA8ExAteNDowIRkcqucFvxPtqqoQ/cBOO9+cB1ezmuE1PQSa4t96uQsDncQp22shSnZ1a0Oh+OTLAc4pWOUU/aRxJbAUFuQB53tiAD0H0wBTlRa2C/2t+HpUU55reaXm8EYCOmYqaKu4xIHE61WRSMYcfmQ7JJueC/wKIQHDx9CafsJmLS6nDgaxLPWWDdHK1UsmJ2jA6OVvmIs00+p50xrM+dlZk49TN5QVeBwNIXAhwxwolTMmTgdaiCjAFAGVEIbL7clOZSwySUcL79oE+T7aG7VX4YZN1ioKdaqrfQV46GKelncahBDFJHJV0zF9DWxCF7ILAPsJ6LXzoZ02Dad00Jr1izTdhBEnb6iFRAxjENhNIwtRuFBo1dM4MyuWqAWHxKaE6SK0Wml4fdcR/koG1EBGFRCXj6TpCifUp8Q5vrbBeUS/RLNOkIY9TzomGBk5rjoBbrZuKIejBjcpoUFT7OtWsiJAsjW8YIxrnHF7KprUzdUflN9r3GbE+V+Ii4msGlxEAOAMvj7fBJ6xyEpXHjQZHfln9p5uSDZXWz8vyKgiLrKiH1FUQmJK+rBqG+i/fNbLHvQGrFFFkQj82wJxACEbHYOCyBtB0GkibQa6hjsL+qEcoKKiOvmGKydQ02wup62cR/298qmbqjyP9uXITDJs/M5myCftOLtasGH+2ICkB4UTamNL/w5c27BZrKgpHKC9Ii+17A2Mc/4PTGZ6EHuK0YCIzXPWv1EBDIERg0QrZhoCiMqoxUTPYUkzZbNCt5MpsEJRf/bxkvG4mJBEckhDaGwcJDA5x9xqjQuer6c2/s3NkEuT0kvi+iEtfqI7D5TGNHDRuj0SpzDOfFSRjMYQ4A0gzEspBO+ZIkaxmk59TBlbWXjS9nVYZYN76nNKc3lROlePLiJJ4AQCFjX/Xz+rs9S+Njaxku/4wT5SkQnHqEqaplnBFUXwmGqiqx5pkBS00zreKgi7SdSVZy0pvLGpNXlE9n7RtskwMzLhSHhNusCpSk+5NgRAWHyhdgfsPHyuWRR/gU9cbZOdfi+bBe9LkxwZTNjLZ1DPBwXi6qoOxYd4QoR8VDFRMOITwV4aX0tvLi6PHtidvWz7P2i7VFO+QecIJ8y7dOb8KG+z+T46p3x2B7tKQEbLwnootMfwdZJHuU5jvd2c4L8IGIPKh4gGuUrWglyD3cP2lJcEc1xxcOJqyuOvZhV/j/Z+0PbGFzmeHmOOpM5HozgMcj3xOtg6uMQNXRKryeLcsisKPrjsE4SlH/E0ZWUKGJI5PsSDaMVE50AGNGB0Qzj0NUiVOEcLefFyETjs0RezCrvn5hV+SOAgZmQ7L3BJVtsgnwkFi9XzYR6O6EA0i8bTYbwlFVJDuXP2B/IttFk23n5CCfKDyI2zSj7EfYVsV+oVUaU04IwqkCk/UN1jTDiuPKE1eWPJq4uPzlhVVkSe/3ZdmB8fwXeN3oPE1WT7+UE+WaivoAeN5CscHEUL09jfyzbRrlPcirfRo95dHpZ5H1Etv9hAiTrQes5LkMKIzPqYimcowEjVUUM0UxeVwMTskqbJmZWfk+vW4T3YpSzIIUTlbfi6WhQBjRq/7PiOKd0ItIxPI2DWfrfgnNKOF46Otop+58RwRLItG18ydc5QS7gePldNAEYfon4O00gVMcVYwFx2Dkt+PCfNZXwwqry915YVeabuKbsO8zlDWtiXI/j5Y7UjPLIrzP7Hz+StiidJifCCZIU1Q2O5MvY9/phus8JUn8yX/S3YVeD2THOUfJFuyD/2sZLx7CfGPV5xqGvSFRTL6bI9BV1YYywrxjmQVtQRVS9idl7YXx62emxWSWjJmTV6HZ78DKniMVfsYlyGydI9yJ2Btl7GmGb3EfeK5NbbROkqYMkuSH/u/AkUjIqgBPlQs7p/T8Md5rN0R7l2xwvr+cE5Rh+loQEIlVGiyCyJlrdV0TTHJN5jhBE4zHoMnghC5WuAsZnlJ4cm+nbiksta15AZifn9H6XE6XclIwYuzoRgketGOHNJb9ITun3eDKC/JC+OPi1ghnX99E0Jzv3hMw/Ya5ZsEmyLxzeZzhedo7i5WsIYizKiJ/VKyyIWiZ6sGGkqoiPUUPoxqaX3h6fXpKZ6il/bkZ29aeDF0mnkcLv/juO9/YSxYsSnnjwgfcb+/vkNNE75QT5/XgcOJZjIASp+D9SkLttojQGza/OdQzZjeECOy8t4wR5L8fLl3DIj3jezBIQpudlACGeF1VBhFALRAKqBfNsOSGCSaDFKaPjsipgwppqGJte/MHYdN++sem+leMzSk2tBl6o1Ixdn7U5JY7j5eaUjPLYnLs4QWvn5UshUzxGOeW9Q2GGjcCw8fIjm1PKTXbv+dMQ4vQ2AJ52OBx/MDqt+NlRgrzczksn8TchQEbfE/ZaBDBSMNV1TCaaPqUA193OLMWnFZxNTfMJY9NLvo6/Ty9up74smK+ZLBSu5QTpPicq1hJC4gRY2DVljosRETsv54ecr91V8I1U7I8xbxwObTSv/uEfpYlzyjM5h/dvQk7cZCN1/q7PckLhP48S5MmcoKzjRKWe4+W3kt0+QI8PM7j9JpyZToDXgEJrAUZDVdQZh0714LzmUhiLfbfV1TBuVQWkuoveSfH4msZ4ijemuJXpYz3FP8YlLUx+YsjLnKPsGY78VqkW46n+a+dfiWo43E88B3Qmk9KVsPSup+yCXDdY4ZhoLwYqmk2QDttd8m/xIYuoCCF3IIINm+j7lk1UJnEuaZudlw9yPImH3ifDg4KEfWIsj4h6RABi0ES7Cx8lu0h5ONpd+HC0u+hBirvofoqr8PZot3I0xV2Ul+opmpacrvx9BKcd+laAp3EJFUyHs/FyZ1RB/MEUHfyPzcsFoT8isDVKkH/sv/jD63+MGla8yJj+bfMH0BtG8V7H7y140Zo/WrUTMz6SBOWvbKL0rdEu+Qe2ldIvbYKUxDm94zBakCzKc5LFwkWcKDuTQ0qh0+4qWpziUuaOFuVpyaIyzu4pGpXMF/2H3eP7IfHgBe9XcSqr6iuj2sTFQ20i9nulWk5UrpAQFTspbDChiui7lPt47ro/2iZ4j0bcZ4roBOIPN3ESMPMaM2z4QhmH9XA4iXiFOuOcuhdguL0A8PQvs6s//RtcXcrt+xebIO3CBF8yQ5F2E4b4+qsFQm+b+Bi8t9nwEuNq+SMNQPYHYwcXPWAS1hGkU3ZBquF4r4cTlf9MWqKELDlneCGG8EX0/m2i9MtRgszb/HNsX7UJ8h38XYlMDGCvY0LaonwrybEhbCJb2KXmBHl+Qk5giP6nEpPt8UEgI/su51Tq7S5lRbJY9IvfCXv+OjXD9+XfOnK/mJSlfCZJUT4RdkHiuAOPnzRH+QwqdKpj15eTXlGeS+blfyVhJF7eywnSDTSnJIw0IkxqBBZN9L5g6VImJSmf4HjvG8O+Qxsl0Pi7UEn83i8J0VznRPmCXZBPcrzUa3NKjXbeW2AT5Uz8z2gX5LE2l/Qru7PgJ0mi8vc2h/R8Kq98DT05Wsi0A4f0PL7OOb0/QsXFWKZNkOZygjeD46U9NlGqJ0FgUTnBCfLbNkG+ht42ngeuTOu/3hGGjKK8BoMpMES1ebnTEnz0TRgk5AT5xmCe6HD6LuyGoDlHOFCNMFyDiRSoohjMxRCOuuB+8np6KXk/MZkIV7TJFCMALiv3zIYPpImmL45JAMMxjmTlRz95TwSmMYGgj8Y1g1yFP6LCFnHN8d6Xh9sIyRO4hgdcZvcBrYjNqUyKGDr1B+y8lP1x7Q+aXcQnr0cHu3+4TRLULEW9jZ1o7Cg/uSHR3ZDH6boFLOaWqGHT+iAuy2vjJe8TJXwCoNF/JoTPLshbHQ6IeohUi7/gPpsgbUV5NTqJJ689npD6lc+7NghLYhrwtF1QVj0xx48nZHrigtES20rS5ws+7DIx/AWOaheliXZ/xsgTNUxgGEPvhg+n/TZBfmAXCsYmFDitg9vcxd/nBG9cFqkZThf0yblYV3cbL99NFvdEn06mBVYk+7i0smc4XmnB8csnN876jRvp14qshspLLTirLhJeEvZeTpAz/Bkoj89NGOkQxXD+mLSbkTCYoj2wXSj4oV2Qzj4ZOfl4/ick95WXz3Eub/RDa9HCZfVzmEkzipdL/JnVH7/MjhhUYwR3UXBxefmBzSlV4PIpVlkY0vfZ0qR/4gT5DGaEPJ437eOhgvjcPJsgvZ0kKD8cUqCi/XJOlF2cIH/4xCyPLCD990u6andJq6K998Pmcyni7q/YRXlrKq4RPcLmMTyO6j3avzhAAU7OGjYQxeNE7GLRd2yCUm8X5IdPxpSHlyKS+yHKOGWy1eaQ/ike93tYHgPnRIxxSM/bebkjxVPypH84DEZRMNubPHDSUfAdTDoZluAk4qQ43vtTmyBV4EI5T8aWB1cR/QklyiO7INUlid7/TMT9HRHHxJUNcHaYjS/YQSB80kdMsFXwT4Ia5ZRK8JFqGDYbEaAMxkmOd1V/aZTgXWoX5INonkf0HNhhYFqpA4UeLRkqFeVTNlESUj3Kc4NxP0f0d+DKqTZBrrFF+PhPetGf1H6T7l9kQOpMdium6y6OaGASdfL4YJtkp3ccJyilHC89xKmRI3nlhkT+x8DrQp7XjFnJvFxH1rIRiv86UffmsTwuJyipNkE5Ycc1jXHlqmFk6obsXPxr/923OeXzNl6ahatlPZZwDOaP5hzeZ2y89Cu7IK3CR4ZikBv/93/c44tE5TwlkJpZgZbgLRsv5YwS5N8n8crXBvP6P/ku1RXAhRxtvDIFHzXACd4POUG+TRSJeNUjNSnC/4R5/B24OBE+6NFO1kaUFic5NBZ4VF2TJ5tDdAVwDT5c8dUuKv9m46VluEKWXZBupK6qJEtnJHtiWNQ8QSYflQ3nVWAfNzWzEjhReoCPMLPzksCJXlxn5lujHdV/MkSX9MnXxuMK/CZt++eTXfJ/cLzXxQlSk02Qz+CDcOyC/BFVTAxZkEKe5ulfPZ+MX0ekpAHlCllVNXDcgRWviKJxgnyR46WzNkHqtAnSattKKSnJNTKWkYvHPXnsj4GLMJEVUV2+5zln0Xe5ld6fcaIyDpWTrCnNyzInKPU2QerHx5VygvyOjZev2kTpGsdLdwicvHQXt20C7pPftfHSazaBLPnbwPFyISdKG+2CssImShNtvPTzJKfyPbur6BsYCCbLwj3mweD/D416lqJV1oVpAAAAAElFTkSuQmCC;" parent="1" vertex="1">
          <mxGeometry x="321.63" y="298" width="65.75" height="60" as="geometry" />
        </mxCell>
        <mxCell id="qsRVk2a8_ZqIA5aBX3Mv-9" style="edgeStyle=orthogonalEdgeStyle;rounded=0;orthogonalLoop=1;jettySize=auto;html=1;exitX=1;exitY=0.5;exitDx=0;exitDy=0;entryX=0;entryY=0.5;entryDx=0;entryDy=0;endArrow=none;endFill=0;strokeWidth=3;strokeColor=#FF8000;" parent="1" source="qsRVk2a8_ZqIA5aBX3Mv-2" target="qsRVk2a8_ZqIA5aBX3Mv-3" edge="1">
          <mxGeometry relative="1" as="geometry" />
        </mxCell>
        <mxCell id="qsRVk2a8_ZqIA5aBX3Mv-2" value="" style="shape=image;verticalLabelPosition=bottom;labelBackgroundColor=#ffffff;verticalAlign=top;aspect=fixed;imageAspect=0;image=data:image/png,iVBORw0KGgoAAAANSUhEUgAAAKAAAACSCAYAAADCfcGLAAAgAElEQVR4Ae2dCXgU15Xv7UkmmUySSWZJ5sXjeCYv33iS95K8yeRl3rzJ+iYzyWQmyZdJPtHVQmIxGLPvOxg3XVXdrQUBYhOrBAh1VUlq7UJCK9pXdgzYBgM2NtjYZt/hvO/c7tu6XV1bb1oM+r7LvVXdXV1d9eN/7jn33FtPPfUY/zmUps85vG3PuHzdzzuLer+7Uun6N7GweyJf2O3gC3u2iEpvqVDY3S4W9hznC3suiIU9V8Si7ntiUQ+Ixb3q8kAs6rkqFvZecBX3nBB9PR3u4p5yV3HfNndJn9Nd0j+J9/X8u1jc9w9pZb1/Jygdf5VW1vb5x/jyP34/3Sn1fF+Qu+avlDvKV0qdrzvlrgu83P2hU+m+zSvdIBb3EaiE4l4QirD0kCJiu7AHCHgIn7owMLqKe8Ht6xsoJf3gLj0AntKDpLj8r932+Po+cvv63nH5ek+Lvv5qT2n/0vSy3h88fnflY/iLHQV9f+FUur7nUDqSHd7OLa9IXadcpUfAXXYEXL4DIBT2glPuCi1KNzgDhS/sBnVBAGkJA5ACyYCICokwhhRfHyCAtFBQ00oPQEbFEcjaewJW154CT0nfGU9Jf67L1zfWXX7w+2JZ119+DG/Tx+snCd79X3V42x0OqeP1V6TOqw6p895KuQuwOKROcEhYDxTcHwYh3WcCI8KZKBgplJ7SA4Bgekr67ntK+q65fQfedJf2efiSvq9/vO7cCP01S3e3fGVFQeevX97TsW6Ft/O8WHoI+KI+eEXqhFe8Hf5CwEP42BIKoRUQ1WrIbscEIqOGVBUDJjpowj0l/YAFYcysPAqra06Ap+TAxbSy/s0uX//v0ooPPztCb+HIPG1HQeu/Ly9o63q5oP3u8oL2Ry8XtMOKgg5SguBRANk6BEIK5ACMqI5WYEQzzQLIthMNI6ojBTJQP/L4+u95SvoOpvn6fzcy7+gIOOulu1p+sTy/I2fZnvbLzuIDsELqBARPqyCMZiCiSuqpIgVRF0amn6gPo7+/GK++op4qUhjTyg5CVvWr4C7pu4Z9x/Ty/l85mpo+OQJu7fA9RUWBTyzPb5+xPL/9yvL8NgiWPe2wnClaENJ98YLRrK/IqqC6HZMqohOjYaZpP1FDERmF7LuJnrVDOf6p4XuXh+GZLc5v/v7SXa3bl+9uv/qK3AvL89th2W4GwChgXFHQDq/EQRl1QWScFzWA7PbgwujvM3pK+m+l+frz00v7fzQMb/fwOKUkRfnEkp2tzy/d3dq5wttNgEPotEpQCXVApOqnVw+WKuqb50HwoAOOCzXRWGOYJ62k/6hY1P8dtC7D484Pg7NYmt/xsyU79zcu2d0GS/PbYcmuVli6q1UTPjWQZjCiqdYDEfebwohOjIX+oq4yDodwDgMj9hWxeEr6211lB34zDG7/kJ3C08t37f/akrzWlpelbgIdgqcuUYPI9BHNILQEYhiE6MQMIw/aQl9R3V/MrDoKHl/fQRwWdDgcfzBkJAz2F3uUui8s2tWsLN65/w6q3uKdLaQs2dkCpGiAGFRFC8popopGimgJRm+HyoPWhtHMix5ME632oimMRA1L+++7fX2VDqXnvw02C4P6fTOyqz+9OLdl3OKdfqVbvHM/DBQVhAijEYg6/UPWRJuBaKaMpuYZA95hyhiFKmoM+1HHhTotWGuGdCIc+lODSPuIGOReVXkUPGV9szJ21X52UMEYjC+bl9v8/QU7m08u2tkCC/P2k7Iobz+QEgIiQvlxgTFUGXUVkfGgraiiLowaGTpG49BaMKIiun39b7p9/f8yGFwk/DvmKB2fmb+9ecHi3W1B8CiAtA6CmMcq4tCAGA/zHBdVjGW0RQViCIQafUU2pkhNc2bFUXCXHhRGdLrYjPymZxfmNp9amNsCC3Y0k7IwtxlICagghZDWZjCiOlrqKw6CiV6W3waLd2FphWV72rRHX+JhogcRRlYVMRnCXdJ3LrPiyDcSrlTx/oL5O5rHL85rgYW5+4PwhUGIMJqAONBHpOroN89WQbTiRZv1FdWquDS/DbIrD8Dhs+/BvfsPSTl27jLkNRwnEK5gx581wzihppkO/Q2nUE4QRIwfVh6FNF/fzHgzkpjjATw9f0djzfwdzTB/RxMsCCt+JRypMKLXXtzxOjx89AjUf48ePYK3L18HV1E3kJEXNYh024Iq6vYXI4gr6vYVo3Bc0Flxl/Z0DuthvUU7W5+bt72he0Hufpi/vWmghEGIYMYAYgx9xWA4x8REq1URP5dZ0kdUTw2eehvhLO8+TQLgup60pgetUsZALqOZMlKPWV2betCqvmJYAq1qDBqzul2+vmO8r/+biVGvGI66KHf/t+duabg+b3sjsCUERIQyzjBinzHUTFs30VZhxPcV7D8B9x48VLNmuH3xoxsBNYwmO0cFo2SQPIteNJOhowYRt+MKY3HvLU/pwX+OAZf4fnTOlob/mret8fa87U0wb1ujv5iBuF3LPGso447EOy0ERFREVZB7UV4LpBf3wvHzlw1BM3oR+4gVvWdg6Z42ooiRJ0RgXJGB0UgVEcIAjFoQsiBiTFHXRDPKGOZBEy+6H1wlfY/E4v5x8SUpiqPN29z027lbGx7M3doAtAQhpDBizQAZjSqiyY7eg9YI6VgIche2nTJiK6LXLnxwA4TCruC4tK5ppv1EC86Lbj+RUUQrcUXNADdCyIAYZp79E68euUsODh2Ec3L2TZ63vRnmbG0IFgohrYcSxsWBQHeoiTaGEVUvw9cLJ9/+ICLArLz59r0HUNl3Bpbk+9WQetcERgupYqEJtIwqmmVyM0DqKSMfmHAVKYzp5YdBLO5ZEoV2xfaRuVsafzNnSz0ECwMhAkkBpHUYiIwiojpGo4pBRbQQzrHaV8xvOg7ozSby781LV0PUMAREVgG12rF40BZANO0ranjQGLzmfT3jYyMqgk/PyqkbM2db4wB8LIi0zQBJIaR1ImAMMdEWgGRVEUNG7sJuOP3uR4nkLuTYt+7eh/Ke07Bkd2vQLFMQsTYM41Aww2AMV0UrZlpPFU1hZEx0WhlOCOuZFQFG0b11Tm7dt+dsqbs7e3MdzN5ST0pQBSl8tGYgVKtiGIS0v8goYzSqGAKiSZCbqmJRe/z6eiGUWdhoOnoeMLDNwse2TfuKVsI5g+VB+3ofuYoTOLF+9ta6b87evO8mAkcARAhpSTCMYWbaQjjHDMb5uc2Qs/eQBUwS9xY095mlfcE5Lix86rYpjFYcF7P+YizhHGKee+67fN3/Nzp5M/jUpM0Vfzxr875XZ1Hg9OoYQEQTramMCVJFBHDzEAOIphidHquTrBBKBNEUxljMcwSjLVpOC1/Yc86j9H3BAKfIX5q5qXbf7C0NMDNnX7AgjIZABmBEU23FTNM+Iq0HA8YFefth274jJNZ34YPr8HagYJtsX74OZ969olmwz/jq+ctw4vwHYQXHhg+duQSHzrwXKAPtg6cvQceJC4BhHoQPkxpCRl4iyOZOOIwWHBd1fNHt68d1dfojp0znEzM21syevbUxCJ4WhFZAtAKhuq+oqYqMIoaZ5sBoS/iIS+jQH2ueF+Q2w+xtjTBr60BJK+6GdZUHSFlfeQA2VLHlIGyoOggbsVTTcgg2VoeWTXsPA5YcLDWHIbviAGCYZ2FeC6kxAE4TaEMApEBGAOLLiVZFCyCyTgtCKBb3OHWQsr57zraaP5uxqfbejE21QAqjgCyI2KaKGBOMqJaM80LVkNbRqGIkMGJoR2k9BYkKxFT0nAbMCKfgadWaMCKUDJDq/qF6O2YTHYe+Iq4o5i7u/e/WaQt7Jzw9fUPNqZk5dX74KIRYJxpEBkK1KmpCqBptCVNGi04LKmNVz+mEeR2tx98GTNaIR5qYlSkFYalhNIRDa5O+otVUMa1QDi5txxd2Xc6ufv3TYWhZ2TF9Q82s6RtrYPrGWphBCwshbefs0wUyElXU7SsawKhpomOEsTKBALYcexvm5+4Pme9iBUZUSk1ltKiKpopowYO2CmPY8J/c7bDCW8h75mR1fGb6xtorfgD9EFoBUW2W2W0KYzB0o/akzTzoBJjn8HzFpsQqIAK4ozkEQJqVEzWIDISWVDEOw366AW5ND7rrvqOi7y9CADPbmL6xpnLm5joYABAhpKXWkiqy8KnbVmHUVUUVjJbMNOO8GAW5C1tPJswEl3e/QZIqzKaffixgDDgufFEv8EqXda94RnbN/5q6fi9gGYCOwqeuTWA06SsimIZOC6pkIIxD6xBvGs0zAyN1Vthas8/IwBjSX9zRBHO3NcLmmkOAIEotJ3SL3HICSGk9AXLrSf0SOEZu/VEyC5DO+rM6rWDZbnOnRdNEM8r4stkKEWiCTZQxPBkifOhPN3lW7gJB7vmxmfCR16eur9lOAcR62oYaUoxhZPqJ2F+k/UNaG/QTKYRWQNSEMAAo6z1bUkRVX1Gtio6CdlBaTxAQldaToFnaTkIhKaegsN1fSjtfh8re01DRe5rU+Pry3a0B+MITaIOTrAzmQlMzreU1s/vM+olWTHTkS9tZBFHqrDAFcEZ29Zemb6oj6sdCyLYRyJhgRChNlNGqiQ5RQwoio4gUSlYRrTguy3a1wLVbd+Nmiq/evAMztzT450EbpIlZgRHNsxUTnXAYvVoT8/Vh9JQeBtN0/qnrK33TNtTClHXVpLDgqduDBaKZ0xKtKhqBuHx3C1y/dS9uAOI8kRlbGoKzAIfT9FN1DFG9Hd1oS/gKEZhz6PR2dumq4KTVNV+ZvK76JoVPXasBpNvTNvjNtJkqxuJFU0U0NNNmQ38RhHMSAuDm+iCA7HTUuMHIjKywZpltx0MVTUM6YbHFEBhv81K79iLrk9ZVJqmhU29T6PRqK6o4WCDGYp6X72qB67fjp4CY9TIjp97SpHw2V9Hf1phopdNfHD7mWXtZu5VyNzi8nZM1VfCl7KqGydnVMDm7ihQ1fOptPQjpfnMYsS/JOC/UYWHrRPcVVf1F2ldcnNsMH167HTcTfO7SVZi5uSE4HTWYza2Ts4gKSZUxFMjhCGO79qoQdLRFHeSWO4+HAYgTjmduaQrCRyHEWg2eepsCp1ebg8hAuLGWeNzzttaDI78FXHI7CFI7zNvWoOu4UPOs21cMhHIi6Sui8zJvayOsr+iHdeV9pMY2WzZU9sNAOQAbMGlBo2SX95HQDg7zqYsZiBRCrENBNJnbsrMFRKULVpf1Q1ZZH/BSJwl+s+ZY3Y6HeTb0oAMgeiqOAj6mLATCF7MqZqH3y4Kn1VbDp97Wg5DuN4NxUnY1SPtfhQ+u34a79x8QBULzdfbiFZi7JTAmnWhVZPqKC7Y3QeeJC3D+vatwLopS0fMGzNqCyqeehho5jPqqGAojwoqpXnfuPQCc3oIOEHr0ZV1vkGFAKx40whkGJBNXjCWc4yzsxSkHmSEATlpT2U+AW1sZM4QUSgqdVq0Gccr6anhl9344fu49TbP38OEjcCsdwfgimu7prKmmbQZOQ4fFgiqiYm6qPqh5PpHs9Chd/klXYRCGz4NGhYyHKn50447mKR47+z6Z/4JpYVZADIMwiqwcLadlhbfjjSCAs1eXfPGltZUXX1pbCWyZbAFGKyYagdSCkO57aV01VHS9DvdNVh7IKOr09xk31YJbbifmGU20v3SAW+6ABdsbYMamgaRZOgRoaqY1PGg06ZvjAGB6UXdUs/5CYAxMtKK5i5i/iIVMDsP21kaYu70RFuY1w9JdLfDhdf3+K06WL+16nWTl0AB3PGC0oooMjB84cpv8K7K+uKrq+UlrKm+z8LHteIFIgaP1S9lVIHhb4dRb1lYeSC/qhGV5TXDn3n3N/910Z3pRV1AdRakd8HNYMoq6IKO4CzKLuyGtsBPmInQGCREIbXwA7ApOzFePtmCuIu5DEy0qneAKli5wKf6yIr8NcNUJVMbdTcfh6s27cOvOfbgZKHfvP4QHDx/BzTv3oLrvDHkfdmHM/o6fu0wysjFBFkGkMKr7huptM1W0BmL7A2d+x7eJCk5YU/Zj7Hu9uKYSJgUKCyDbjheME9dUQEXXa6aqx17EVcVdwHtbycVm96vb2Id8cW0VtBw7T+b44s0JLw8BU+Nnb/FPrCImHc06U6ZurIWNlf3qw0e87ZI7Ydbmepi1JbSgeiF8i3P3w7Vb98i1QCugLg8ePIItNYcJhEfPvm/4/QgmquH7V28Zvo++iGqI/UXMUaQQ0jpqVbRgpl+RurAf+HsC4ItrK2ZNyq4iACKEtCCMLHxsm4BowUTT/iCtJ6yugDSlHc5dukKvgeU6EgBfWF0JFy5fMzz2Ox9cJ4kMa8t6yQ3Dm6cu2JHHP6xRec0Lvs9f8Obi3/Vbd+HKzTth5fj594nyZZebQ15/8Kw1AO/eJ1MLrAJIThAATr71AWT4ejRBRCDVKqi1HaaMBk4LPmptRUGHyw9gVvm2SWsRvAqmhIIYDxjR9DYefJP+5ojrzKIuYrJRzYz+pOZX4YWsSnjrvatGbyOTjtAE7+s/Y/g+fHFpXjPM2VIXnC5A44Vh9bYGEnLBMI6VGXeC1AGrS3tNv7/x8Dlixk0VMEoA6Qlg35AqoFZtRRURTjMYMVN7ubfVn5wwcXVFE4FvdQW8SIsKRgSQmuiXjJQRg9gqZcRjZxZ2klAG/aHR1GtLe2DlnhZTE+xtPg7jsypMv+/C5eskFcwKgEtymzT7izjaohVfxH05FhwYUe4A7LOa/REAtzWCFQBxxOXSRzfMDqn7+sm3P4RVJb1kdVstCHEfAdFEGRHCMBipKhZ0wLI97Sf8fcDV5acnri4HWoIQIowqECmECKSRKqK5Rg8Z37+7/qjuj43khexEAJizD2otKOBiLQCpA6PpQSOAB0x/Hu9FJ6nb9H0IIOYpWgFwek494NqEsfxh7BWTZ82ycxBEK6oYpogIZ37bTWqCr1L41LUZjCyQbB+RtgtbXo3lOoR8NnEAmk9CWrTDPy3VajgHnQ4rAAreduKRh/xQjY2IANxUFzOA9BTe/fAGvFLQHvogIZ1x6KAymqw+y6qiXwGzymAiLYwSsjBGA+Lk7Ep4/UL8ljnLqeoHx+795ia4KQITvGkf1PaZA7gwACCbPGsU6EYAN1lQQKe3HTyFnfR+69YI4JxtDXD0rHagnn4QV1qYunEf6d/SfbHWdQffJPNYaCa3mSpaBRFVMQjghKwyoCWeMGYVm/dvrF6gnMo+cOSbA1jQeBzGZpZb6gPO3FQbMYA0uG0E46ycOthUZe7dRgTg1gY4+qYxgLfjDCCGhNyFXRrZ3P6kiFhhJAC+sGoAPgoh1pZBDOknYr9xwIOeuLoCZmzYC0fOXAIcTovlL6eyPzIA3zfxgi9fB6sALggkQ1jJ5EbP2g+geR/QWdAGHsVcARsOnSMeuBUAp2zYB+hgxfp368492LT3EMlhpEkRkSREqB0Yrb4iAXD8qrK7CCEtLIS0bRlGHccFQUxX2gFT06P9215zEF7Z1Wxqgvc0HvMrYDwBJEN8zFwXkzkuOJl/U5U1ANMsAoie9RELCjhlQy2ciXGtQwzSO6UOwAWc2ORZqwkRQWU0WQrZD2Bm6aXxDICJAhEhRHXsPnlB8zkbZmDuqD0IKywAWNB0DMZklML594yD3agSOHmqxkIfkN/TBst2NsNyVVm2az8s1yj43rz6I2Y/CVAB3RYBxJEUqwCefie6xTYxa2Z3w3Eyf8UoKYIqoqU0MV2npe1hAMCSQ+Mzy2B8Zqm/JBhGHIYT9rTCtZuRTfrZURMA0CRpwdd+AlIzSuFtCwo4fUMNiFIbXNHJHqEE+cde75HxVhxztVLoKAo9hrrG0aA5m+vAigKiE4JOjyUA19dGtdorrtj1cn4rzN8emioWBFFDDak6UiBNTXQojBcJgONWlZWi6gUBHAQQ0cN+aW0VdLz6luW+4e6GI7A8r8l0/BgBHL+qHMo6TpE8uJu378ENpuA2Do81HT4LOJ8FhwkxcE36rmurYBIWHBtfWwXoecf6t3B7I8nQwSwdtg85ZX0NCW4vzWuCD67dDhsDpmPCCHte3RECoFkf8M7d+zB5fS0cP2c8Zsz+Jsyc2dVwDGZvZfMWQyEMycyJOIs7NF8RzTOJH+5u7fQDmFnqHp9ZHg4gBRHrBKoiv6cFbt42znDBC5bfcASmra+G1wxWsP/o+m2Yt2UfYKYNBsLnbN5HElkxmTWkbN5nmCKGw4ZT1u+FrXtjzwdkQzh6HvSC7Y3ExKPpDi37YUlec3A55KYj51h2wtpvvnsFJq+vsQxg2/G3YenOFpi3zejJVgYwRqmKS8hDHlty/QB6yrjxqypgXEbABLPgqdvxBnFNBUzI8o/CNB8+G3ZB2R0IIMYjx2aUwqQ1FQOZO8zQICofSawNABhLvuLkddWwxUIsjz1HrfZC6sAwybIsiGw4Jyw9TDXagsulrC7tIWliOVUHgS3rKvqALCK6ud4UwIsf3iDJttNz6rRTxeKUPKvntODi7AtzW2YTAMe4y747Lr3kIQLIlvFmQKLZVgFJvWa2NvOg0RzTQPfS3Aa4ckM7l21Pw1FAR4aOsqhr9Ri0GsRIYUQAN8cBwPkUQJq1jXUcYNQag8axafTA24+/pfV/geyrO3gWcKpByJIlekuVBJ75Z2VKgRUzTfuKCOCSvJYfEAAnphU/Oy695Mq49BIgRQWiqTKqIMT+JAsgbZuBiBBOzCqHqeuqoenQm3A3kAqFVw0zWxZsrRtQPVX2NgujFRCtwohOQt2BM3DgjXc1ykXofe0d6DmlXbpPXQAMCU1Zt9e/vB0LoAmERCGjXAIZwXSgk8es7ID9yRPnLwOmfmFf1GhSPq6VE7JeDn3wJCbPWlBG4rTQqQU6/cVFeftvLsgLzA+etLnvD8eml5wbm+7zA0hBxHoIYUQzu3RHA8zOqTVMimDhU7djgXHa+r1k6I8vaAWhoE23iN42EL3t4JK0y/K85tDppzpr56jNMrtNx6B1h/80EiIQMkx2wFAPZn/TZUpozaaShaihxiMzwoCMBEbsJ4b3Fd9ZuL3t80QB8Z8x6SXSuMwyQAhpCSoiBXIIYCT9w6wBEx2anTMw6kIyc5i+oBpE3I4Exnlb6oinrGvHInyh5eg5eCm7OrCmTug01LCFnDbVaq7HTYGkENI6rN/IwOh/TWOReGbmHwJJYZwXaIcBaWSiI4ExrxkW7WyBBbktTUH4sJGa7vvJhLXVMCbdRwqFcEhUEYcBNZIiaD+R1CHDfwNDf5bSxFT5ilp9xYXb6uP6yC6c1jlxTaVqUScTEE1GW6gqhgFIHResdfIVg6tGMCBSCGkdBqFqNbEwVdR8HG+4B710Txcsyt2fHAIgUcG04msUQLZmYQwDMtGqGDGMA6polipmpIoIoNZT0SMUvuDbCYBr1QCyq4wNLxhZVUQgNWFUAak14SrUeRmAMQw+3JHiKcog4KUVB5VQD8R4mOd4e9Ch5jlcFY0SaNXmOd4AohP1QlaFSgFZAGmbAVHttNDtBHrQRBkZVbQEYgTmGfuC83c07dYEcExayT+mphXfS00rBixjaAmY5ZEL44AqUhNtBiN63PH8wxGMCasrg8FvqyuKBReH13JcTDzpeJtoNYyaymgEIzHRjQ8X5jX+TBPAnzqaPjnGXXgh1VMMpARADMKoAtHQNA+hB83GFUNV0TqI+DmXtxXKO1+D8o5T+qXzlP89Xa9BuUbBqafeJn8ohs6HZmtcIUK9SkT4MneMKsYAohWnJdg3ZBf7jK8HfXmq0vQ5TQBx55h03wvjs6r8AFIQsTaBEdWRBTIeJppm5dCaxhPZ2iy2GA2MU9ZVQW7tIcivPwK76w77C7ZNCr5fszQcJRBiJg0Ln7ptFcYhX1HMwEQbqeKiXe04Dzr8kQ02UfoHlsgUT/G7QRVkIVSDqFJEaqJZEEeS04JmefLaKnjjwofxtL7BY2F2DCbAmi1VYhVEQ/M8DD3oudsbb7GccYL3q2Tb5pSq2RdSRGVSiqcYaDGDUa+vaAiihokOy8aJYhw6qIg63jMN7wRDOqpwDoZk3rxonEcYJCrCxr0HD2FWzsDyx3SyvloJ2W1z82xtjcVEDv1Zdly2NixmOeMEaRfZ5kT5il0s+Ev64tQNyudSXEUfpbiLghAijJZA1FBFQxA1wjiRDv2xJpltB2HUiCmGmGYmixsnUr15MbpkTjMecaUELQCtgmgOI9NXpB4zWxt4zxjkNnVazGKKqr4ijScG6luzttYHGfuto+SLnCC/R5izuwrBLihuCiDWqZ6iX49fVQkEQgQxGhg1wjmGMGqoYqQwxjIOjaqI4ZhEAjhzUw1gH5NCp1ezKqhum4OoUkUtxyVOMOolRLCquHAXLjDaOJXlyy5KM+yuIiD7OEGG0WklwKV5n2HfNNpVVB8CYLQgaqhipE5LPMwzqqOZKuL4M06gSsQfzoeZsXFvMF1MDz66Xw2eejvRfUWqiLres5WRFqKadQdZrlIzaj/L8TIgd0EAOVEBm1Mqf+opeJq+mXMXfXe0uxhGU/D06kB/MVoTPVxgpOYbQzArdzdDRmEHZLKlqAMySemETFzurXCg4NIjemVVUSd45DaYvmEv4Bo8JBZJsnn8SbNWM3PUALLbwwJGDSCJ+d1e//8oU1jbnNJOu6ioABQIkQ+SXMr/YN/MuQqXp6aXQbKrEJL1AMT9Q+C0xMM8j8ssgczCdijvPAmtR89B+/HzpLQdOw9Yuk++rVl6Tl2Ag29c1CyHTl8kK73iaq+0vHruPTjx1mWyFiLOWMMJ+/hdaUoHmQpAx6Op+hnVLHjh7QjjithHjNREW0wTm5/bgtNTN7E8jXbkP8sJ8i1Uv1AFFGRAKm1O6QL7AWwnu5Q2AiBCGCiGqjhMYVQP/aFZR0Ubyj9c6WvR9vqgWaYgxkMVEc7woDYd8qO1ieMS22jLUTVLNt57yC4WEvjCAMQdqHLJvDckWE2aiv8AABLZSURBVJjM7/nbZLEQRjMAUhCxTjSMkZpoK8qIMOL70DwO5R8uAoTDfix4Wm0jRaSvhauh/4GTuB+H/gYDRpqZM3c7ribWEBJftgnS9GSPLwifJoC4kxPku+Ozq7/E0mt3KT8Z7SkmECYaxMEc+sP5JVaXCI43qJixvGJnM0m2NcrMUQNJgdOrjUGM0ERHap5z9sGcbU0wK6fexvLzQlrZ5+288lGAryCE5D3qnQGJPDNp0uY/ZA+SLHo9KemlxFQjhLSwakjbqIpWlNHMcRkMGDH2V9F1Kt58GR6vrOMkWbIEve5Yk2f1QMT9ZjBGpIpaMKqSZ3F54Jkb921jucG2jZf6k11FQfAoc5oA0hdtorRRfSBOUPbigbC/GIQtACPdZmtDCBnnxQxEMtoSh3COnnkem1ECYkEL3GDmURgSFOWLOAHeuacFcKlimpmjBWBQES0kz1rpL5qBaB5bZPqKWiBiXJGsiVPbq2bGxisC9XopW7Q2BJAEqJ0FKewBkxzKpzhR6aIQ4oGHBMY0f+Y2HX+mtWGgW2PUhY0vjk0vganZlVDT+3qUeBl/rKT9JExdXw0TcBZgcAhwYOVZS0Ay003VppluGymiuSpae/CkehwaR1Jm5Ow7PnVDaKZLslv+VwqbVm0IIH7Ajk6JU/keC+FPHY5P2gXlDVQ6CiBb434z86wZ4GYU0fLQn8ZoS6xOC/Z1UQ0/vGZtpXlj7ABwDu7yvEYYl1kanH46ACCmiFlPEwsqowmIZhCagYiKadk844oPG2ou4vNmWE7QebUL/nifFny4zxRA/weVS+Nym/6IPfgYl+/P7YJ0mqhkQAVZCGmbhVHLeTE00XEI50QL47gMvxru7YlNDSWSC1gVnHxPkyFCxqKDajh8YdQ30eTZfhfnbGoIffbbU089xYnKaT3w6H5LAKJTYhPk86Md+X/CQvhrR8Ufc4J0itNRQhZCFkRsq4shiIwymvUV4+20pKb5YG1JV8RPzsRHROBoCga6yfBfBAkRA+o43MxzqAeNs/mmbdj71tQNgSceBeAY58j9I05QDms5HRQ8WlsCkL55lCB3swBiO8mjfMEmSMdwYJm8z0ANWSDNTLQhkBaH/vRgjFQVsW84JbuSTJY3M7f4OqreS2sqyHqLdHjPyjh0MEWMyc4ZrjBO37gPpq+vOTd5U+2X1UzYBamKMmNWRwQgBhHtgrwfCVd/KScqlWiOg19oBiIdUTHxoHVBjMA8ExAteNDowIRkcqucFvxPtqqoQ/cBOO9+cB1ezmuE1PQSa4t96uQsDncQp22shSnZ1a0Oh+OTLAc4pWOUU/aRxJbAUFuQB53tiAD0H0wBTlRa2C/2t+HpUU55reaXm8EYCOmYqaKu4xIHE61WRSMYcfmQ7JJueC/wKIQHDx9CafsJmLS6nDgaxLPWWDdHK1UsmJ2jA6OVvmIs00+p50xrM+dlZk49TN5QVeBwNIXAhwxwolTMmTgdaiCjAFAGVEIbL7clOZSwySUcL79oE+T7aG7VX4YZN1ioKdaqrfQV46GKelncahBDFJHJV0zF9DWxCF7ILAPsJ6LXzoZ02Dad00Jr1izTdhBEnb6iFRAxjENhNIwtRuFBo1dM4MyuWqAWHxKaE6SK0Wml4fdcR/koG1EBGFRCXj6TpCifUp8Q5vrbBeUS/RLNOkIY9TzomGBk5rjoBbrZuKIejBjcpoUFT7OtWsiJAsjW8YIxrnHF7KprUzdUflN9r3GbE+V+Ii4msGlxEAOAMvj7fBJ6xyEpXHjQZHfln9p5uSDZXWz8vyKgiLrKiH1FUQmJK+rBqG+i/fNbLHvQGrFFFkQj82wJxACEbHYOCyBtB0GkibQa6hjsL+qEcoKKiOvmGKydQ02wup62cR/298qmbqjyP9uXITDJs/M5myCftOLtasGH+2ICkB4UTamNL/w5c27BZrKgpHKC9Ii+17A2Mc/4PTGZ6EHuK0YCIzXPWv1EBDIERg0QrZhoCiMqoxUTPYUkzZbNCt5MpsEJRf/bxkvG4mJBEckhDaGwcJDA5x9xqjQuer6c2/s3NkEuT0kvi+iEtfqI7D5TGNHDRuj0SpzDOfFSRjMYQ4A0gzEspBO+ZIkaxmk59TBlbWXjS9nVYZYN76nNKc3lROlePLiJJ4AQCFjX/Xz+rs9S+Njaxku/4wT5SkQnHqEqaplnBFUXwmGqiqx5pkBS00zreKgi7SdSVZy0pvLGpNXlE9n7RtskwMzLhSHhNusCpSk+5NgRAWHyhdgfsPHyuWRR/gU9cbZOdfi+bBe9LkxwZTNjLZ1DPBwXi6qoOxYd4QoR8VDFRMOITwV4aX0tvLi6PHtidvWz7P2i7VFO+QecIJ8y7dOb8KG+z+T46p3x2B7tKQEbLwnootMfwdZJHuU5jvd2c4L8IGIPKh4gGuUrWglyD3cP2lJcEc1xxcOJqyuOvZhV/j/Z+0PbGFzmeHmOOpM5HozgMcj3xOtg6uMQNXRKryeLcsisKPrjsE4SlH/E0ZWUKGJI5PsSDaMVE50AGNGB0Qzj0NUiVOEcLefFyETjs0RezCrvn5hV+SOAgZmQ7L3BJVtsgnwkFi9XzYR6O6EA0i8bTYbwlFVJDuXP2B/IttFk23n5CCfKDyI2zSj7EfYVsV+oVUaU04IwqkCk/UN1jTDiuPKE1eWPJq4uPzlhVVkSe/3ZdmB8fwXeN3oPE1WT7+UE+WaivoAeN5CscHEUL09jfyzbRrlPcirfRo95dHpZ5H1Etv9hAiTrQes5LkMKIzPqYimcowEjVUUM0UxeVwMTskqbJmZWfk+vW4T3YpSzIIUTlbfi6WhQBjRq/7PiOKd0ItIxPI2DWfrfgnNKOF46Otop+58RwRLItG18ydc5QS7gePldNAEYfon4O00gVMcVYwFx2Dkt+PCfNZXwwqry915YVeabuKbsO8zlDWtiXI/j5Y7UjPLIrzP7Hz+StiidJifCCZIU1Q2O5MvY9/phus8JUn8yX/S3YVeD2THOUfJFuyD/2sZLx7CfGPV5xqGvSFRTL6bI9BV1YYywrxjmQVtQRVS9idl7YXx62emxWSWjJmTV6HZ78DKniMVfsYlyGydI9yJ2Btl7GmGb3EfeK5NbbROkqYMkuSH/u/AkUjIqgBPlQs7p/T8Md5rN0R7l2xwvr+cE5Rh+loQEIlVGiyCyJlrdV0TTHJN5jhBE4zHoMnghC5WuAsZnlJ4cm+nbiksta15AZifn9H6XE6XclIwYuzoRgketGOHNJb9ITun3eDKC/JC+OPi1ghnX99E0Jzv3hMw/Ya5ZsEmyLxzeZzhedo7i5WsIYizKiJ/VKyyIWiZ6sGGkqoiPUUPoxqaX3h6fXpKZ6il/bkZ29aeDF0mnkcLv/juO9/YSxYsSnnjwgfcb+/vkNNE75QT5/XgcOJZjIASp+D9SkLttojQGza/OdQzZjeECOy8t4wR5L8fLl3DIj3jezBIQpudlACGeF1VBhFALRAKqBfNsOSGCSaDFKaPjsipgwppqGJte/MHYdN++sem+leMzSk2tBl6o1Ixdn7U5JY7j5eaUjPLYnLs4QWvn5UshUzxGOeW9Q2GGjcCw8fIjm1PKTXbv+dMQ4vQ2AJ52OBx/MDqt+NlRgrzczksn8TchQEbfE/ZaBDBSMNV1TCaaPqUA193OLMWnFZxNTfMJY9NLvo6/Ty9up74smK+ZLBSu5QTpPicq1hJC4gRY2DVljosRETsv54ecr91V8I1U7I8xbxwObTSv/uEfpYlzyjM5h/dvQk7cZCN1/q7PckLhP48S5MmcoKzjRKWe4+W3kt0+QI8PM7j9JpyZToDXgEJrAUZDVdQZh0714LzmUhiLfbfV1TBuVQWkuoveSfH4msZ4ijemuJXpYz3FP8YlLUx+YsjLnKPsGY78VqkW46n+a+dfiWo43E88B3Qmk9KVsPSup+yCXDdY4ZhoLwYqmk2QDttd8m/xIYuoCCF3IIINm+j7lk1UJnEuaZudlw9yPImH3ifDg4KEfWIsj4h6RABi0ES7Cx8lu0h5ONpd+HC0u+hBirvofoqr8PZot3I0xV2Ul+opmpacrvx9BKcd+laAp3EJFUyHs/FyZ1RB/MEUHfyPzcsFoT8isDVKkH/sv/jD63+MGla8yJj+bfMH0BtG8V7H7y140Zo/WrUTMz6SBOWvbKL0rdEu+Qe2ldIvbYKUxDm94zBakCzKc5LFwkWcKDuTQ0qh0+4qWpziUuaOFuVpyaIyzu4pGpXMF/2H3eP7IfHgBe9XcSqr6iuj2sTFQ20i9nulWk5UrpAQFTspbDChiui7lPt47ro/2iZ4j0bcZ4roBOIPN3ESMPMaM2z4QhmH9XA4iXiFOuOcuhdguL0A8PQvs6s//RtcXcrt+xebIO3CBF8yQ5F2E4b4+qsFQm+b+Bi8t9nwEuNq+SMNQPYHYwcXPWAS1hGkU3ZBquF4r4cTlf9MWqKELDlneCGG8EX0/m2i9MtRgszb/HNsX7UJ8h38XYlMDGCvY0LaonwrybEhbCJb2KXmBHl+Qk5giP6nEpPt8UEgI/su51Tq7S5lRbJY9IvfCXv+OjXD9+XfOnK/mJSlfCZJUT4RdkHiuAOPnzRH+QwqdKpj15eTXlGeS+blfyVhJF7eywnSDTSnJIw0IkxqBBZN9L5g6VImJSmf4HjvG8O+Qxsl0Pi7UEn83i8J0VznRPmCXZBPcrzUa3NKjXbeW2AT5Uz8z2gX5LE2l/Qru7PgJ0mi8vc2h/R8Kq98DT05Wsi0A4f0PL7OOb0/QsXFWKZNkOZygjeD46U9NlGqJ0FgUTnBCfLbNkG+ht42ngeuTOu/3hGGjKK8BoMpMES1ebnTEnz0TRgk5AT5xmCe6HD6LuyGoDlHOFCNMFyDiRSoohjMxRCOuuB+8np6KXk/MZkIV7TJFCMALiv3zIYPpImmL45JAMMxjmTlRz95TwSmMYGgj8Y1g1yFP6LCFnHN8d6Xh9sIyRO4hgdcZvcBrYjNqUyKGDr1B+y8lP1x7Q+aXcQnr0cHu3+4TRLULEW9jZ1o7Cg/uSHR3ZDH6boFLOaWqGHT+iAuy2vjJe8TJXwCoNF/JoTPLshbHQ6IeohUi7/gPpsgbUV5NTqJJ689npD6lc+7NghLYhrwtF1QVj0xx48nZHrigtES20rS5ws+7DIx/AWOaheliXZ/xsgTNUxgGEPvhg+n/TZBfmAXCsYmFDitg9vcxd/nBG9cFqkZThf0yblYV3cbL99NFvdEn06mBVYk+7i0smc4XmnB8csnN876jRvp14qshspLLTirLhJeEvZeTpAz/Bkoj89NGOkQxXD+mLSbkTCYoj2wXSj4oV2Qzj4ZOfl4/ick95WXz3Eub/RDa9HCZfVzmEkzipdL/JnVH7/MjhhUYwR3UXBxefmBzSlV4PIpVlkY0vfZ0qR/4gT5DGaEPJ437eOhgvjcPJsgvZ0kKD8cUqCi/XJOlF2cIH/4xCyPLCD990u6andJq6K998Pmcyni7q/YRXlrKq4RPcLmMTyO6j3avzhAAU7OGjYQxeNE7GLRd2yCUm8X5IdPxpSHlyKS+yHKOGWy1eaQ/ike93tYHgPnRIxxSM/bebkjxVPypH84DEZRMNubPHDSUfAdTDoZluAk4qQ43vtTmyBV4EI5T8aWB1cR/QklyiO7INUlid7/TMT9HRHHxJUNcHaYjS/YQSB80kdMsFXwT4Ia5ZRK8JFqGDYbEaAMxkmOd1V/aZTgXWoX5INonkf0HNhhYFqpA4UeLRkqFeVTNlESUj3Kc4NxP0f0d+DKqTZBrrFF+PhPetGf1H6T7l9kQOpMdium6y6OaGASdfL4YJtkp3ccJyilHC89xKmRI3nlhkT+x8DrQp7XjFnJvFxH1rIRiv86UffmsTwuJyipNkE5Ycc1jXHlqmFk6obsXPxr/923OeXzNl6ahatlPZZwDOaP5hzeZ2y89Cu7IK3CR4ZikBv/93/c44tE5TwlkJpZgZbgLRsv5YwS5N8n8crXBvP6P/ku1RXAhRxtvDIFHzXACd4POUG+TRSJeNUjNSnC/4R5/B24OBE+6NFO1kaUFic5NBZ4VF2TJ5tDdAVwDT5c8dUuKv9m46VluEKWXZBupK6qJEtnJHtiWNQ8QSYflQ3nVWAfNzWzEjhReoCPMLPzksCJXlxn5lujHdV/MkSX9MnXxuMK/CZt++eTXfJ/cLzXxQlSk02Qz+CDcOyC/BFVTAxZkEKe5ulfPZ+MX0ekpAHlCllVNXDcgRWviKJxgnyR46WzNkHqtAnSattKKSnJNTKWkYvHPXnsj4GLMJEVUV2+5zln0Xe5ld6fcaIyDpWTrCnNyzInKPU2QerHx5VygvyOjZev2kTpGsdLdwicvHQXt20C7pPftfHSazaBLPnbwPFyISdKG+2CssImShNtvPTzJKfyPbur6BsYCCbLwj3mweD/D416lqJV1oVpAAAAAElFTkSuQmCC;" parent="1" vertex="1">
          <mxGeometry x="550" y="298" width="65.75" height="60" as="geometry" />
        </mxCell>
        <mxCell id="qsRVk2a8_ZqIA5aBX3Mv-10" style="edgeStyle=orthogonalEdgeStyle;rounded=0;orthogonalLoop=1;jettySize=auto;html=1;exitX=0.5;exitY=1;exitDx=0;exitDy=0;entryX=0.5;entryY=0;entryDx=0;entryDy=0;endArrow=none;endFill=0;strokeWidth=3;strokeColor=#FF8000;" parent="1" source="qsRVk2a8_ZqIA5aBX3Mv-3" target="qsRVk2a8_ZqIA5aBX3Mv-5" edge="1">
          <mxGeometry relative="1" as="geometry" />
        </mxCell>
        <mxCell id="qsRVk2a8_ZqIA5aBX3Mv-3" value="" style="shape=image;verticalLabelPosition=bottom;labelBackgroundColor=#ffffff;verticalAlign=top;aspect=fixed;imageAspect=0;image=data:image/png,iVBORw0KGgoAAAANSUhEUgAAAKAAAACSCAYAAADCfcGLAAAgAElEQVR4Ae2dCXgU15Xv7UkmmUySSWZJ5sXjeCYv33iS95K8yeRl3rzJ+iYzyWQmyZdJPtHVQmIxGLPvOxg3XVXdrQUBYhOrBAh1VUlq7UJCK9pXdgzYBgM2NtjYZt/hvO/c7tu6XV1bb1oM+r7LvVXdXV1d9eN/7jn33FtPPfUY/zmUps85vG3PuHzdzzuLer+7Uun6N7GweyJf2O3gC3u2iEpvqVDY3S4W9hznC3suiIU9V8Si7ntiUQ+Ixb3q8kAs6rkqFvZecBX3nBB9PR3u4p5yV3HfNndJn9Nd0j+J9/X8u1jc9w9pZb1/Jygdf5VW1vb5x/jyP34/3Sn1fF+Qu+avlDvKV0qdrzvlrgu83P2hU+m+zSvdIBb3EaiE4l4QirD0kCJiu7AHCHgIn7owMLqKe8Ht6xsoJf3gLj0AntKDpLj8r932+Po+cvv63nH5ek+Lvv5qT2n/0vSy3h88fnflY/iLHQV9f+FUur7nUDqSHd7OLa9IXadcpUfAXXYEXL4DIBT2glPuCi1KNzgDhS/sBnVBAGkJA5ACyYCICokwhhRfHyCAtFBQ00oPQEbFEcjaewJW154CT0nfGU9Jf67L1zfWXX7w+2JZ119+DG/Tx+snCd79X3V42x0OqeP1V6TOqw6p895KuQuwOKROcEhYDxTcHwYh3WcCI8KZKBgplJ7SA4Bgekr67ntK+q65fQfedJf2efiSvq9/vO7cCP01S3e3fGVFQeevX97TsW6Ft/O8WHoI+KI+eEXqhFe8Hf5CwEP42BIKoRUQ1WrIbscEIqOGVBUDJjpowj0l/YAFYcysPAqra06Ap+TAxbSy/s0uX//v0ooPPztCb+HIPG1HQeu/Ly9o63q5oP3u8oL2Ry8XtMOKgg5SguBRANk6BEIK5ACMqI5WYEQzzQLIthMNI6ojBTJQP/L4+u95SvoOpvn6fzcy7+gIOOulu1p+sTy/I2fZnvbLzuIDsELqBARPqyCMZiCiSuqpIgVRF0amn6gPo7+/GK++op4qUhjTyg5CVvWr4C7pu4Z9x/Ty/l85mpo+OQJu7fA9RUWBTyzPb5+xPL/9yvL8NgiWPe2wnClaENJ98YLRrK/IqqC6HZMqohOjYaZpP1FDERmF7LuJnrVDOf6p4XuXh+GZLc5v/v7SXa3bl+9uv/qK3AvL89th2W4GwChgXFHQDq/EQRl1QWScFzWA7PbgwujvM3pK+m+l+frz00v7fzQMb/fwOKUkRfnEkp2tzy/d3dq5wttNgEPotEpQCXVApOqnVw+WKuqb50HwoAOOCzXRWGOYJ62k/6hY1P8dtC7D484Pg7NYmt/xsyU79zcu2d0GS/PbYcmuVli6q1UTPjWQZjCiqdYDEfebwohOjIX+oq4yDodwDgMj9hWxeEr6211lB34zDG7/kJ3C08t37f/akrzWlpelbgIdgqcuUYPI9BHNILQEYhiE6MQMIw/aQl9R3V/MrDoKHl/fQRwWdDgcfzBkJAz2F3uUui8s2tWsLN65/w6q3uKdLaQs2dkCpGiAGFRFC8popopGimgJRm+HyoPWhtHMix5ME632oimMRA1L+++7fX2VDqXnvw02C4P6fTOyqz+9OLdl3OKdfqVbvHM/DBQVhAijEYg6/UPWRJuBaKaMpuYZA95hyhiFKmoM+1HHhTotWGuGdCIc+lODSPuIGOReVXkUPGV9szJ21X52UMEYjC+bl9v8/QU7m08u2tkCC/P2k7Iobz+QEgIiQvlxgTFUGXUVkfGgraiiLowaGTpG49BaMKIiun39b7p9/f8yGFwk/DvmKB2fmb+9ecHi3W1B8CiAtA6CmMcq4tCAGA/zHBdVjGW0RQViCIQafUU2pkhNc2bFUXCXHhRGdLrYjPymZxfmNp9amNsCC3Y0k7IwtxlICagghZDWZjCiOlrqKw6CiV6W3waLd2FphWV72rRHX+JhogcRRlYVMRnCXdJ3LrPiyDcSrlTx/oL5O5rHL85rgYW5+4PwhUGIMJqAONBHpOroN89WQbTiRZv1FdWquDS/DbIrD8Dhs+/BvfsPSTl27jLkNRwnEK5gx581wzihppkO/Q2nUE4QRIwfVh6FNF/fzHgzkpjjATw9f0djzfwdzTB/RxMsCCt+JRypMKLXXtzxOjx89AjUf48ePYK3L18HV1E3kJEXNYh024Iq6vYXI4gr6vYVo3Bc0Flxl/Z0DuthvUU7W5+bt72he0Hufpi/vWmghEGIYMYAYgx9xWA4x8REq1URP5dZ0kdUTw2eehvhLO8+TQLgup60pgetUsZALqOZMlKPWV2betCqvmJYAq1qDBqzul2+vmO8r/+biVGvGI66KHf/t+duabg+b3sjsCUERIQyzjBinzHUTFs30VZhxPcV7D8B9x48VLNmuH3xoxsBNYwmO0cFo2SQPIteNJOhowYRt+MKY3HvLU/pwX+OAZf4fnTOlob/mret8fa87U0wb1ujv5iBuF3LPGso447EOy0ERFREVZB7UV4LpBf3wvHzlw1BM3oR+4gVvWdg6Z42ooiRJ0RgXJGB0UgVEcIAjFoQsiBiTFHXRDPKGOZBEy+6H1wlfY/E4v5x8SUpiqPN29z027lbGx7M3doAtAQhpDBizQAZjSqiyY7eg9YI6VgIche2nTJiK6LXLnxwA4TCruC4tK5ppv1EC86Lbj+RUUQrcUXNADdCyIAYZp79E68euUsODh2Ec3L2TZ63vRnmbG0IFgohrYcSxsWBQHeoiTaGEVUvw9cLJ9/+ICLArLz59r0HUNl3Bpbk+9WQetcERgupYqEJtIwqmmVyM0DqKSMfmHAVKYzp5YdBLO5ZEoV2xfaRuVsafzNnSz0ECwMhAkkBpHUYiIwiojpGo4pBRbQQzrHaV8xvOg7ozSby781LV0PUMAREVgG12rF40BZANO0ranjQGLzmfT3jYyMqgk/PyqkbM2db4wB8LIi0zQBJIaR1ImAMMdEWgGRVEUNG7sJuOP3uR4nkLuTYt+7eh/Ke07Bkd2vQLFMQsTYM41Aww2AMV0UrZlpPFU1hZEx0WhlOCOuZFQFG0b11Tm7dt+dsqbs7e3MdzN5ST0pQBSl8tGYgVKtiGIS0v8goYzSqGAKiSZCbqmJRe/z6eiGUWdhoOnoeMLDNwse2TfuKVsI5g+VB+3ofuYoTOLF+9ta6b87evO8mAkcARAhpSTCMYWbaQjjHDMb5uc2Qs/eQBUwS9xY095mlfcE5Lix86rYpjFYcF7P+YizhHGKee+67fN3/Nzp5M/jUpM0Vfzxr875XZ1Hg9OoYQEQTramMCVJFBHDzEAOIphidHquTrBBKBNEUxljMcwSjLVpOC1/Yc86j9H3BAKfIX5q5qXbf7C0NMDNnX7AgjIZABmBEU23FTNM+Iq0HA8YFefth274jJNZ34YPr8HagYJtsX74OZ969olmwz/jq+ctw4vwHYQXHhg+duQSHzrwXKAPtg6cvQceJC4BhHoQPkxpCRl4iyOZOOIwWHBd1fNHt68d1dfojp0znEzM21syevbUxCJ4WhFZAtAKhuq+oqYqMIoaZ5sBoS/iIS+jQH2ueF+Q2w+xtjTBr60BJK+6GdZUHSFlfeQA2VLHlIGyoOggbsVTTcgg2VoeWTXsPA5YcLDWHIbviAGCYZ2FeC6kxAE4TaEMApEBGAOLLiVZFCyCyTgtCKBb3OHWQsr57zraaP5uxqfbejE21QAqjgCyI2KaKGBOMqJaM80LVkNbRqGIkMGJoR2k9BYkKxFT0nAbMCKfgadWaMCKUDJDq/qF6O2YTHYe+Iq4o5i7u/e/WaQt7Jzw9fUPNqZk5dX74KIRYJxpEBkK1KmpCqBptCVNGi04LKmNVz+mEeR2tx98GTNaIR5qYlSkFYalhNIRDa5O+otVUMa1QDi5txxd2Xc6ufv3TYWhZ2TF9Q82s6RtrYPrGWphBCwshbefs0wUyElXU7SsawKhpomOEsTKBALYcexvm5+4Pme9iBUZUSk1ltKiKpopowYO2CmPY8J/c7bDCW8h75mR1fGb6xtorfgD9EFoBUW2W2W0KYzB0o/akzTzoBJjn8HzFpsQqIAK4ozkEQJqVEzWIDISWVDEOw366AW5ND7rrvqOi7y9CADPbmL6xpnLm5joYABAhpKXWkiqy8KnbVmHUVUUVjJbMNOO8GAW5C1tPJswEl3e/QZIqzKaffixgDDgufFEv8EqXda94RnbN/5q6fi9gGYCOwqeuTWA06SsimIZOC6pkIIxD6xBvGs0zAyN1Vthas8/IwBjSX9zRBHO3NcLmmkOAIEotJ3SL3HICSGk9AXLrSf0SOEZu/VEyC5DO+rM6rWDZbnOnRdNEM8r4stkKEWiCTZQxPBkifOhPN3lW7gJB7vmxmfCR16eur9lOAcR62oYaUoxhZPqJ2F+k/UNaG/QTKYRWQNSEMAAo6z1bUkRVX1Gtio6CdlBaTxAQldaToFnaTkIhKaegsN1fSjtfh8re01DRe5rU+Pry3a0B+MITaIOTrAzmQlMzreU1s/vM+olWTHTkS9tZBFHqrDAFcEZ29Zemb6oj6sdCyLYRyJhgRChNlNGqiQ5RQwoio4gUSlYRrTguy3a1wLVbd+Nmiq/evAMztzT450EbpIlZgRHNsxUTnXAYvVoT8/Vh9JQeBtN0/qnrK33TNtTClHXVpLDgqduDBaKZ0xKtKhqBuHx3C1y/dS9uAOI8kRlbGoKzAIfT9FN1DFG9Hd1oS/gKEZhz6PR2dumq4KTVNV+ZvK76JoVPXasBpNvTNvjNtJkqxuJFU0U0NNNmQ38RhHMSAuDm+iCA7HTUuMHIjKywZpltx0MVTUM6YbHFEBhv81K79iLrk9ZVJqmhU29T6PRqK6o4WCDGYp6X72qB67fjp4CY9TIjp97SpHw2V9Hf1phopdNfHD7mWXtZu5VyNzi8nZM1VfCl7KqGydnVMDm7ihQ1fOptPQjpfnMYsS/JOC/UYWHrRPcVVf1F2ldcnNsMH167HTcTfO7SVZi5uSE4HTWYza2Ts4gKSZUxFMjhCGO79qoQdLRFHeSWO4+HAYgTjmduaQrCRyHEWg2eepsCp1ebg8hAuLGWeNzzttaDI78FXHI7CFI7zNvWoOu4UPOs21cMhHIi6Sui8zJvayOsr+iHdeV9pMY2WzZU9sNAOQAbMGlBo2SX95HQDg7zqYsZiBRCrENBNJnbsrMFRKULVpf1Q1ZZH/BSJwl+s+ZY3Y6HeTb0oAMgeiqOAj6mLATCF7MqZqH3y4Kn1VbDp97Wg5DuN4NxUnY1SPtfhQ+u34a79x8QBULzdfbiFZi7JTAmnWhVZPqKC7Y3QeeJC3D+vatwLopS0fMGzNqCyqeehho5jPqqGAojwoqpXnfuPQCc3oIOEHr0ZV1vkGFAKx40whkGJBNXjCWc4yzsxSkHmSEATlpT2U+AW1sZM4QUSgqdVq0Gccr6anhl9344fu49TbP38OEjcCsdwfgimu7prKmmbQZOQ4fFgiqiYm6qPqh5PpHs9Chd/klXYRCGz4NGhYyHKn50447mKR47+z6Z/4JpYVZADIMwiqwcLadlhbfjjSCAs1eXfPGltZUXX1pbCWyZbAFGKyYagdSCkO57aV01VHS9DvdNVh7IKOr09xk31YJbbifmGU20v3SAW+6ABdsbYMamgaRZOgRoaqY1PGg06ZvjAGB6UXdUs/5CYAxMtKK5i5i/iIVMDsP21kaYu70RFuY1w9JdLfDhdf3+K06WL+16nWTl0AB3PGC0oooMjB84cpv8K7K+uKrq+UlrKm+z8LHteIFIgaP1S9lVIHhb4dRb1lYeSC/qhGV5TXDn3n3N/910Z3pRV1AdRakd8HNYMoq6IKO4CzKLuyGtsBPmInQGCREIbXwA7ApOzFePtmCuIu5DEy0qneAKli5wKf6yIr8NcNUJVMbdTcfh6s27cOvOfbgZKHfvP4QHDx/BzTv3oLrvDHkfdmHM/o6fu0wysjFBFkGkMKr7huptM1W0BmL7A2d+x7eJCk5YU/Zj7Hu9uKYSJgUKCyDbjheME9dUQEXXa6aqx17EVcVdwHtbycVm96vb2Id8cW0VtBw7T+b44s0JLw8BU+Nnb/FPrCImHc06U6ZurIWNlf3qw0e87ZI7Ydbmepi1JbSgeiF8i3P3w7Vb98i1QCugLg8ePIItNYcJhEfPvm/4/QgmquH7V28Zvo++iGqI/UXMUaQQ0jpqVbRgpl+RurAf+HsC4ItrK2ZNyq4iACKEtCCMLHxsm4BowUTT/iCtJ6yugDSlHc5dukKvgeU6EgBfWF0JFy5fMzz2Ox9cJ4kMa8t6yQ3Dm6cu2JHHP6xRec0Lvs9f8Obi3/Vbd+HKzTth5fj594nyZZebQ15/8Kw1AO/eJ1MLrAJIThAATr71AWT4ejRBRCDVKqi1HaaMBk4LPmptRUGHyw9gVvm2SWsRvAqmhIIYDxjR9DYefJP+5ojrzKIuYrJRzYz+pOZX4YWsSnjrvatGbyOTjtAE7+s/Y/g+fHFpXjPM2VIXnC5A44Vh9bYGEnLBMI6VGXeC1AGrS3tNv7/x8Dlixk0VMEoA6Qlg35AqoFZtRRURTjMYMVN7ubfVn5wwcXVFE4FvdQW8SIsKRgSQmuiXjJQRg9gqZcRjZxZ2klAG/aHR1GtLe2DlnhZTE+xtPg7jsypMv+/C5eskFcwKgEtymzT7izjaohVfxH05FhwYUe4A7LOa/REAtzWCFQBxxOXSRzfMDqn7+sm3P4RVJb1kdVstCHEfAdFEGRHCMBipKhZ0wLI97Sf8fcDV5acnri4HWoIQIowqECmECKSRKqK5Rg8Z37+7/qjuj43khexEAJizD2otKOBiLQCpA6PpQSOAB0x/Hu9FJ6nb9H0IIOYpWgFwek494NqEsfxh7BWTZ82ycxBEK6oYpogIZ37bTWqCr1L41LUZjCyQbB+RtgtbXo3lOoR8NnEAmk9CWrTDPy3VajgHnQ4rAAreduKRh/xQjY2IANxUFzOA9BTe/fAGvFLQHvogIZ1x6KAymqw+y6qiXwGzymAiLYwSsjBGA+Lk7Ep4/UL8ljnLqeoHx+795ia4KQITvGkf1PaZA7gwACCbPGsU6EYAN1lQQKe3HTyFnfR+69YI4JxtDXD0rHagnn4QV1qYunEf6d/SfbHWdQffJPNYaCa3mSpaBRFVMQjghKwyoCWeMGYVm/dvrF6gnMo+cOSbA1jQeBzGZpZb6gPO3FQbMYA0uG0E46ycOthUZe7dRgTg1gY4+qYxgLfjDCCGhNyFXRrZ3P6kiFhhJAC+sGoAPgoh1pZBDOknYr9xwIOeuLoCZmzYC0fOXAIcTovlL6eyPzIA3zfxgi9fB6sALggkQ1jJ5EbP2g+geR/QWdAGHsVcARsOnSMeuBUAp2zYB+hgxfp368492LT3EMlhpEkRkSREqB0Yrb4iAXD8qrK7CCEtLIS0bRlGHccFQUxX2gFT06P9215zEF7Z1Wxqgvc0HvMrYDwBJEN8zFwXkzkuOJl/U5U1ANMsAoie9RELCjhlQy2ciXGtQwzSO6UOwAWc2ORZqwkRQWU0WQrZD2Bm6aXxDICJAhEhRHXsPnlB8zkbZmDuqD0IKywAWNB0DMZklML594yD3agSOHmqxkIfkN/TBst2NsNyVVm2az8s1yj43rz6I2Y/CVAB3RYBxJEUqwCefie6xTYxa2Z3w3Eyf8UoKYIqoqU0MV2npe1hAMCSQ+Mzy2B8Zqm/JBhGHIYT9rTCtZuRTfrZURMA0CRpwdd+AlIzSuFtCwo4fUMNiFIbXNHJHqEE+cde75HxVhxztVLoKAo9hrrG0aA5m+vAigKiE4JOjyUA19dGtdorrtj1cn4rzN8emioWBFFDDak6UiBNTXQojBcJgONWlZWi6gUBHAQQ0cN+aW0VdLz6luW+4e6GI7A8r8l0/BgBHL+qHMo6TpE8uJu378ENpuA2Do81HT4LOJ8FhwkxcE36rmurYBIWHBtfWwXoecf6t3B7I8nQwSwdtg85ZX0NCW4vzWuCD67dDhsDpmPCCHte3RECoFkf8M7d+zB5fS0cP2c8Zsz+Jsyc2dVwDGZvZfMWQyEMycyJOIs7NF8RzTOJH+5u7fQDmFnqHp9ZHg4gBRHrBKoiv6cFbt42znDBC5bfcASmra+G1wxWsP/o+m2Yt2UfYKYNBsLnbN5HElkxmTWkbN5nmCKGw4ZT1u+FrXtjzwdkQzh6HvSC7Y3ExKPpDi37YUlec3A55KYj51h2wtpvvnsFJq+vsQxg2/G3YenOFpi3zejJVgYwRqmKS8hDHlty/QB6yrjxqypgXEbABLPgqdvxBnFNBUzI8o/CNB8+G3ZB2R0IIMYjx2aUwqQ1FQOZO8zQICofSawNABhLvuLkddWwxUIsjz1HrfZC6sAwybIsiGw4Jyw9TDXagsulrC7tIWliOVUHgS3rKvqALCK6ud4UwIsf3iDJttNz6rRTxeKUPKvntODi7AtzW2YTAMe4y747Lr3kIQLIlvFmQKLZVgFJvWa2NvOg0RzTQPfS3Aa4ckM7l21Pw1FAR4aOsqhr9Ri0GsRIYUQAN8cBwPkUQJq1jXUcYNQag8axafTA24+/pfV/geyrO3gWcKpByJIlekuVBJ75Z2VKgRUzTfuKCOCSvJYfEAAnphU/Oy695Mq49BIgRQWiqTKqIMT+JAsgbZuBiBBOzCqHqeuqoenQm3A3kAqFVw0zWxZsrRtQPVX2NgujFRCtwohOQt2BM3DgjXc1ykXofe0d6DmlXbpPXQAMCU1Zt9e/vB0LoAmERCGjXAIZwXSgk8es7ID9yRPnLwOmfmFf1GhSPq6VE7JeDn3wJCbPWlBG4rTQqQU6/cVFeftvLsgLzA+etLnvD8eml5wbm+7zA0hBxHoIYUQzu3RHA8zOqTVMimDhU7djgXHa+r1k6I8vaAWhoE23iN42EL3t4JK0y/K85tDppzpr56jNMrtNx6B1h/80EiIQMkx2wFAPZn/TZUpozaaShaihxiMzwoCMBEbsJ4b3Fd9ZuL3t80QB8Z8x6SXSuMwyQAhpCSoiBXIIYCT9w6wBEx2anTMw6kIyc5i+oBpE3I4Exnlb6oinrGvHInyh5eg5eCm7OrCmTug01LCFnDbVaq7HTYGkENI6rN/IwOh/TWOReGbmHwJJYZwXaIcBaWSiI4ExrxkW7WyBBbktTUH4sJGa7vvJhLXVMCbdRwqFcEhUEYcBNZIiaD+R1CHDfwNDf5bSxFT5ilp9xYXb6uP6yC6c1jlxTaVqUScTEE1GW6gqhgFIHResdfIVg6tGMCBSCGkdBqFqNbEwVdR8HG+4B710Txcsyt2fHAIgUcG04msUQLZmYQwDMtGqGDGMA6polipmpIoIoNZT0SMUvuDbCYBr1QCyq4wNLxhZVUQgNWFUAak14SrUeRmAMQw+3JHiKcog4KUVB5VQD8R4mOd4e9Ch5jlcFY0SaNXmOd4AohP1QlaFSgFZAGmbAVHttNDtBHrQRBkZVbQEYgTmGfuC83c07dYEcExayT+mphXfS00rBixjaAmY5ZEL44AqUhNtBiN63PH8wxGMCasrg8FvqyuKBReH13JcTDzpeJtoNYyaymgEIzHRjQ8X5jX+TBPAnzqaPjnGXXgh1VMMpARADMKoAtHQNA+hB83GFUNV0TqI+DmXtxXKO1+D8o5T+qXzlP89Xa9BuUbBqafeJn8ohs6HZmtcIUK9SkT4MneMKsYAohWnJdg3ZBf7jK8HfXmq0vQ5TQBx55h03wvjs6r8AFIQsTaBEdWRBTIeJppm5dCaxhPZ2iy2GA2MU9ZVQW7tIcivPwK76w77C7ZNCr5fszQcJRBiJg0Ln7ptFcYhX1HMwEQbqeKiXe04Dzr8kQ02UfoHlsgUT/G7QRVkIVSDqFJEaqJZEEeS04JmefLaKnjjwofxtL7BY2F2DCbAmi1VYhVEQ/M8DD3oudsbb7GccYL3q2Tb5pSq2RdSRGVSiqcYaDGDUa+vaAiihokOy8aJYhw6qIg63jMN7wRDOqpwDoZk3rxonEcYJCrCxr0HD2FWzsDyx3SyvloJ2W1z82xtjcVEDv1Zdly2NixmOeMEaRfZ5kT5il0s+Ev64tQNyudSXEUfpbiLghAijJZA1FBFQxA1wjiRDv2xJpltB2HUiCmGmGYmixsnUr15MbpkTjMecaUELQCtgmgOI9NXpB4zWxt4zxjkNnVazGKKqr4ijScG6luzttYHGfuto+SLnCC/R5izuwrBLihuCiDWqZ6iX49fVQkEQgQxGhg1wjmGMGqoYqQwxjIOjaqI4ZhEAjhzUw1gH5NCp1ezKqhum4OoUkUtxyVOMOolRLCquHAXLjDaOJXlyy5KM+yuIiD7OEGG0WklwKV5n2HfNNpVVB8CYLQgaqhipE5LPMwzqqOZKuL4M06gSsQfzoeZsXFvMF1MDz66Xw2eejvRfUWqiLres5WRFqKadQdZrlIzaj/L8TIgd0EAOVEBm1Mqf+opeJq+mXMXfXe0uxhGU/D06kB/MVoTPVxgpOYbQzArdzdDRmEHZLKlqAMySemETFzurXCg4NIjemVVUSd45DaYvmEv4Bo8JBZJsnn8SbNWM3PUALLbwwJGDSCJ+d1e//8oU1jbnNJOu6ioABQIkQ+SXMr/YN/MuQqXp6aXQbKrEJL1AMT9Q+C0xMM8j8ssgczCdijvPAmtR89B+/HzpLQdOw9Yuk++rVl6Tl2Ag29c1CyHTl8kK73iaq+0vHruPTjx1mWyFiLOWMMJ+/hdaUoHmQpAx6Op+hnVLHjh7QjjithHjNREW0wTm5/bgtNTN7E8jXbkP8sJ8i1Uv1AFFGRAKm1O6QL7AWwnu5Q2AiBCGCiGqjhMYVQP/aFZR0Ubyj9c6WvR9vqgWaYgxkMVEc7woDYd8qO1ieMS22jLUTVLNt57yC4WEvjCAMQdqHLJvDckWE2aiv8AABLZSURBVJjM7/nbZLEQRjMAUhCxTjSMkZpoK8qIMOL70DwO5R8uAoTDfix4Wm0jRaSvhauh/4GTuB+H/gYDRpqZM3c7ribWEBJftgnS9GSPLwifJoC4kxPku+Ozq7/E0mt3KT8Z7SkmECYaxMEc+sP5JVaXCI43qJixvGJnM0m2NcrMUQNJgdOrjUGM0ERHap5z9sGcbU0wK6fexvLzQlrZ5+288lGAryCE5D3qnQGJPDNp0uY/ZA+SLHo9KemlxFQjhLSwakjbqIpWlNHMcRkMGDH2V9F1Kt58GR6vrOMkWbIEve5Yk2f1QMT9ZjBGpIpaMKqSZ3F54Jkb921jucG2jZf6k11FQfAoc5oA0hdtorRRfSBOUPbigbC/GIQtACPdZmtDCBnnxQxEMtoSh3COnnkem1ECYkEL3GDmURgSFOWLOAHeuacFcKlimpmjBWBQES0kz1rpL5qBaB5bZPqKWiBiXJGsiVPbq2bGxisC9XopW7Q2BJAEqJ0FKewBkxzKpzhR6aIQ4oGHBMY0f+Y2HX+mtWGgW2PUhY0vjk0vganZlVDT+3qUeBl/rKT9JExdXw0TcBZgcAhwYOVZS0Ay003VppluGymiuSpae/CkehwaR1Jm5Ow7PnVDaKZLslv+VwqbVm0IIH7Ajk6JU/keC+FPHY5P2gXlDVQ6CiBb434z86wZ4GYU0fLQn8ZoS6xOC/Z1UQ0/vGZtpXlj7ABwDu7yvEYYl1kanH46ACCmiFlPEwsqowmIZhCagYiKadk844oPG2ou4vNmWE7QebUL/nifFny4zxRA/weVS+Nym/6IPfgYl+/P7YJ0mqhkQAVZCGmbhVHLeTE00XEI50QL47gMvxru7YlNDSWSC1gVnHxPkyFCxqKDajh8YdQ30eTZfhfnbGoIffbbU089xYnKaT3w6H5LAKJTYhPk86Md+X/CQvhrR8Ufc4J0itNRQhZCFkRsq4shiIwymvUV4+20pKb5YG1JV8RPzsRHROBoCga6yfBfBAkRA+o43MxzqAeNs/mmbdj71tQNgSceBeAY58j9I05QDms5HRQ8WlsCkL55lCB3swBiO8mjfMEmSMdwYJm8z0ANWSDNTLQhkBaH/vRgjFQVsW84JbuSTJY3M7f4OqreS2sqyHqLdHjPyjh0MEWMyc4ZrjBO37gPpq+vOTd5U+2X1UzYBamKMmNWRwQgBhHtgrwfCVd/KScqlWiOg19oBiIdUTHxoHVBjMA8ExAteNDowIRkcqucFvxPtqqoQ/cBOO9+cB1ezmuE1PQSa4t96uQsDncQp22shSnZ1a0Oh+OTLAc4pWOUU/aRxJbAUFuQB53tiAD0H0wBTlRa2C/2t+HpUU55reaXm8EYCOmYqaKu4xIHE61WRSMYcfmQ7JJueC/wKIQHDx9CafsJmLS6nDgaxLPWWDdHK1UsmJ2jA6OVvmIs00+p50xrM+dlZk49TN5QVeBwNIXAhwxwolTMmTgdaiCjAFAGVEIbL7clOZSwySUcL79oE+T7aG7VX4YZN1ioKdaqrfQV46GKelncahBDFJHJV0zF9DWxCF7ILAPsJ6LXzoZ02Dad00Jr1izTdhBEnb6iFRAxjENhNIwtRuFBo1dM4MyuWqAWHxKaE6SK0Wml4fdcR/koG1EBGFRCXj6TpCifUp8Q5vrbBeUS/RLNOkIY9TzomGBk5rjoBbrZuKIejBjcpoUFT7OtWsiJAsjW8YIxrnHF7KprUzdUflN9r3GbE+V+Ii4msGlxEAOAMvj7fBJ6xyEpXHjQZHfln9p5uSDZXWz8vyKgiLrKiH1FUQmJK+rBqG+i/fNbLHvQGrFFFkQj82wJxACEbHYOCyBtB0GkibQa6hjsL+qEcoKKiOvmGKydQ02wup62cR/298qmbqjyP9uXITDJs/M5myCftOLtasGH+2ICkB4UTamNL/w5c27BZrKgpHKC9Ii+17A2Mc/4PTGZ6EHuK0YCIzXPWv1EBDIERg0QrZhoCiMqoxUTPYUkzZbNCt5MpsEJRf/bxkvG4mJBEckhDaGwcJDA5x9xqjQuer6c2/s3NkEuT0kvi+iEtfqI7D5TGNHDRuj0SpzDOfFSRjMYQ4A0gzEspBO+ZIkaxmk59TBlbWXjS9nVYZYN76nNKc3lROlePLiJJ4AQCFjX/Xz+rs9S+Njaxku/4wT5SkQnHqEqaplnBFUXwmGqiqx5pkBS00zreKgi7SdSVZy0pvLGpNXlE9n7RtskwMzLhSHhNusCpSk+5NgRAWHyhdgfsPHyuWRR/gU9cbZOdfi+bBe9LkxwZTNjLZ1DPBwXi6qoOxYd4QoR8VDFRMOITwV4aX0tvLi6PHtidvWz7P2i7VFO+QecIJ8y7dOb8KG+z+T46p3x2B7tKQEbLwnootMfwdZJHuU5jvd2c4L8IGIPKh4gGuUrWglyD3cP2lJcEc1xxcOJqyuOvZhV/j/Z+0PbGFzmeHmOOpM5HozgMcj3xOtg6uMQNXRKryeLcsisKPrjsE4SlH/E0ZWUKGJI5PsSDaMVE50AGNGB0Qzj0NUiVOEcLefFyETjs0RezCrvn5hV+SOAgZmQ7L3BJVtsgnwkFi9XzYR6O6EA0i8bTYbwlFVJDuXP2B/IttFk23n5CCfKDyI2zSj7EfYVsV+oVUaU04IwqkCk/UN1jTDiuPKE1eWPJq4uPzlhVVkSe/3ZdmB8fwXeN3oPE1WT7+UE+WaivoAeN5CscHEUL09jfyzbRrlPcirfRo95dHpZ5H1Etv9hAiTrQes5LkMKIzPqYimcowEjVUUM0UxeVwMTskqbJmZWfk+vW4T3YpSzIIUTlbfi6WhQBjRq/7PiOKd0ItIxPI2DWfrfgnNKOF46Otop+58RwRLItG18ydc5QS7gePldNAEYfon4O00gVMcVYwFx2Dkt+PCfNZXwwqry915YVeabuKbsO8zlDWtiXI/j5Y7UjPLIrzP7Hz+StiidJifCCZIU1Q2O5MvY9/phus8JUn8yX/S3YVeD2THOUfJFuyD/2sZLx7CfGPV5xqGvSFRTL6bI9BV1YYywrxjmQVtQRVS9idl7YXx62emxWSWjJmTV6HZ78DKniMVfsYlyGydI9yJ2Btl7GmGb3EfeK5NbbROkqYMkuSH/u/AkUjIqgBPlQs7p/T8Md5rN0R7l2xwvr+cE5Rh+loQEIlVGiyCyJlrdV0TTHJN5jhBE4zHoMnghC5WuAsZnlJ4cm+nbiksta15AZifn9H6XE6XclIwYuzoRgketGOHNJb9ITun3eDKC/JC+OPi1ghnX99E0Jzv3hMw/Ya5ZsEmyLxzeZzhedo7i5WsIYizKiJ/VKyyIWiZ6sGGkqoiPUUPoxqaX3h6fXpKZ6il/bkZ29aeDF0mnkcLv/juO9/YSxYsSnnjwgfcb+/vkNNE75QT5/XgcOJZjIASp+D9SkLttojQGza/OdQzZjeECOy8t4wR5L8fLl3DIj3jezBIQpudlACGeF1VBhFALRAKqBfNsOSGCSaDFKaPjsipgwppqGJte/MHYdN++sem+leMzSk2tBl6o1Ixdn7U5JY7j5eaUjPLYnLs4QWvn5UshUzxGOeW9Q2GGjcCw8fIjm1PKTXbv+dMQ4vQ2AJ52OBx/MDqt+NlRgrzczksn8TchQEbfE/ZaBDBSMNV1TCaaPqUA193OLMWnFZxNTfMJY9NLvo6/Ty9up74smK+ZLBSu5QTpPicq1hJC4gRY2DVljosRETsv54ecr91V8I1U7I8xbxwObTSv/uEfpYlzyjM5h/dvQk7cZCN1/q7PckLhP48S5MmcoKzjRKWe4+W3kt0+QI8PM7j9JpyZToDXgEJrAUZDVdQZh0714LzmUhiLfbfV1TBuVQWkuoveSfH4msZ4ijemuJXpYz3FP8YlLUx+YsjLnKPsGY78VqkW46n+a+dfiWo43E88B3Qmk9KVsPSup+yCXDdY4ZhoLwYqmk2QDttd8m/xIYuoCCF3IIINm+j7lk1UJnEuaZudlw9yPImH3ifDg4KEfWIsj4h6RABi0ES7Cx8lu0h5ONpd+HC0u+hBirvofoqr8PZot3I0xV2Ul+opmpacrvx9BKcd+laAp3EJFUyHs/FyZ1RB/MEUHfyPzcsFoT8isDVKkH/sv/jD63+MGla8yJj+bfMH0BtG8V7H7y140Zo/WrUTMz6SBOWvbKL0rdEu+Qe2ldIvbYKUxDm94zBakCzKc5LFwkWcKDuTQ0qh0+4qWpziUuaOFuVpyaIyzu4pGpXMF/2H3eP7IfHgBe9XcSqr6iuj2sTFQ20i9nulWk5UrpAQFTspbDChiui7lPt47ro/2iZ4j0bcZ4roBOIPN3ESMPMaM2z4QhmH9XA4iXiFOuOcuhdguL0A8PQvs6s//RtcXcrt+xebIO3CBF8yQ5F2E4b4+qsFQm+b+Bi8t9nwEuNq+SMNQPYHYwcXPWAS1hGkU3ZBquF4r4cTlf9MWqKELDlneCGG8EX0/m2i9MtRgszb/HNsX7UJ8h38XYlMDGCvY0LaonwrybEhbCJb2KXmBHl+Qk5giP6nEpPt8UEgI/su51Tq7S5lRbJY9IvfCXv+OjXD9+XfOnK/mJSlfCZJUT4RdkHiuAOPnzRH+QwqdKpj15eTXlGeS+blfyVhJF7eywnSDTSnJIw0IkxqBBZN9L5g6VImJSmf4HjvG8O+Qxsl0Pi7UEn83i8J0VznRPmCXZBPcrzUa3NKjXbeW2AT5Uz8z2gX5LE2l/Qru7PgJ0mi8vc2h/R8Kq98DT05Wsi0A4f0PL7OOb0/QsXFWKZNkOZygjeD46U9NlGqJ0FgUTnBCfLbNkG+ht42ngeuTOu/3hGGjKK8BoMpMES1ebnTEnz0TRgk5AT5xmCe6HD6LuyGoDlHOFCNMFyDiRSoohjMxRCOuuB+8np6KXk/MZkIV7TJFCMALiv3zIYPpImmL45JAMMxjmTlRz95TwSmMYGgj8Y1g1yFP6LCFnHN8d6Xh9sIyRO4hgdcZvcBrYjNqUyKGDr1B+y8lP1x7Q+aXcQnr0cHu3+4TRLULEW9jZ1o7Cg/uSHR3ZDH6boFLOaWqGHT+iAuy2vjJe8TJXwCoNF/JoTPLshbHQ6IeohUi7/gPpsgbUV5NTqJJ689npD6lc+7NghLYhrwtF1QVj0xx48nZHrigtES20rS5ws+7DIx/AWOaheliXZ/xsgTNUxgGEPvhg+n/TZBfmAXCsYmFDitg9vcxd/nBG9cFqkZThf0yblYV3cbL99NFvdEn06mBVYk+7i0smc4XmnB8csnN876jRvp14qshspLLTirLhJeEvZeTpAz/Bkoj89NGOkQxXD+mLSbkTCYoj2wXSj4oV2Qzj4ZOfl4/ick95WXz3Eub/RDa9HCZfVzmEkzipdL/JnVH7/MjhhUYwR3UXBxefmBzSlV4PIpVlkY0vfZ0qR/4gT5DGaEPJ437eOhgvjcPJsgvZ0kKD8cUqCi/XJOlF2cIH/4xCyPLCD990u6andJq6K998Pmcyni7q/YRXlrKq4RPcLmMTyO6j3avzhAAU7OGjYQxeNE7GLRd2yCUm8X5IdPxpSHlyKS+yHKOGWy1eaQ/ike93tYHgPnRIxxSM/bebkjxVPypH84DEZRMNubPHDSUfAdTDoZluAk4qQ43vtTmyBV4EI5T8aWB1cR/QklyiO7INUlid7/TMT9HRHHxJUNcHaYjS/YQSB80kdMsFXwT4Ia5ZRK8JFqGDYbEaAMxkmOd1V/aZTgXWoX5INonkf0HNhhYFqpA4UeLRkqFeVTNlESUj3Kc4NxP0f0d+DKqTZBrrFF+PhPetGf1H6T7l9kQOpMdium6y6OaGASdfL4YJtkp3ccJyilHC89xKmRI3nlhkT+x8DrQp7XjFnJvFxH1rIRiv86UffmsTwuJyipNkE5Ycc1jXHlqmFk6obsXPxr/923OeXzNl6ahatlPZZwDOaP5hzeZ2y89Cu7IK3CR4ZikBv/93/c44tE5TwlkJpZgZbgLRsv5YwS5N8n8crXBvP6P/ku1RXAhRxtvDIFHzXACd4POUG+TRSJeNUjNSnC/4R5/B24OBE+6NFO1kaUFic5NBZ4VF2TJ5tDdAVwDT5c8dUuKv9m46VluEKWXZBupK6qJEtnJHtiWNQ8QSYflQ3nVWAfNzWzEjhReoCPMLPzksCJXlxn5lujHdV/MkSX9MnXxuMK/CZt++eTXfJ/cLzXxQlSk02Qz+CDcOyC/BFVTAxZkEKe5ulfPZ+MX0ekpAHlCllVNXDcgRWviKJxgnyR46WzNkHqtAnSattKKSnJNTKWkYvHPXnsj4GLMJEVUV2+5zln0Xe5ld6fcaIyDpWTrCnNyzInKPU2QerHx5VygvyOjZev2kTpGsdLdwicvHQXt20C7pPftfHSazaBLPnbwPFyISdKG+2CssImShNtvPTzJKfyPbur6BsYCCbLwj3mweD/D416lqJV1oVpAAAAAElFTkSuQmCC;" parent="1" vertex="1">
          <mxGeometry x="781.63" y="298" width="65.75" height="60" as="geometry" />
        </mxCell>
        <mxCell id="qsRVk2a8_ZqIA5aBX3Mv-4" value="" style="shape=image;verticalLabelPosition=bottom;labelBackgroundColor=#ffffff;verticalAlign=top;aspect=fixed;imageAspect=0;image=data:image/png,iVBORw0KGgoAAAANSUhEUgAAALAAAABmCAYAAABr0BtsAAAZh0lEQVR4Ae2dC1Bc13nHsZM2idM0r3Gd9JE2fUwmk9RNpp02mWlnaqdJmkwfTiaKXhYCvV/oBUIvQCuxsAvICLBeIAmExC7swu4CAgRCvAQsb9mVndaxUzeO07oTK3HsOs5YknU632W/y7lnzz333LuXZVnWM99853F3xR5+/L/HveC0tNR/qRNIncDCnoDD4Xiw1D/5qaKW8UddwellxcFplys40+YOzdxyhaZuu0Mz99yhGRKx+yWt06+7Q9O33KHpVndw2lXSOvW9suDUFyvannsE3mthP03qX18yJ3AiMP1pBdbA9PMlrTMA5b3StmdJadszpKQV7CZCG+VhD66Ba0vbn4X9e254j+DMreLAdGFRYPrTS+YgUx80fidQHJz4pCsw8x1XcCZc3v0COX7lVhSclNpa2iu7cosc73yeuAKTQ8WhiScc/vAn4vcJU/9SUp6AwzHwfnfrdJUrNPMLt6Ke+uoqC7ArOE30rBj2QjMEfFFw6ueuwM3jSXmwqQ81vydQ1vNvHy4OzGx2haZ/BcooCyfvOj1YcR1g1bPSK7dIcWDyV8UtkxsdA//1wfn91Kl3T4oTcAen/9YdnH7NHZJTWwSR5/XAjFoPTJFigRXN7r1WEpr666Q45NSHsP8EHFemH3K1zpQe73iO6MHLgxTXoqAUKKsRrAAsz9ytz5CiwITDUTeQUmP7EVi871jhHX/EFZz+sSs4I8xPpSAVKCmAywNTXWuZJEUS5myZ+veqqq4PLN4TT33ltp1AUfPk11zBqbdAdVFNwUvBCtcJgFXB1ANXAlYaaGfzJAErCkwTp3/i7WP+ia/adhCpN1p8J1DcMvXt4uD0XUNYrUJqElCAFSGlfWHzBOGZE34wmqe+tfhOPvUVx3wCxa2TmWWdz0UrrVVYASazwEYUtbB5koABtDxQ9daO+WfBdjZP/WvMB5J6g8VzAkebb36tODB1nw3/8xXyZdRUBCmAqjHfODlGWVFwhhR5x79u93dgmd//PkfTyFeO+cbyHE1jnUeaxl4qaBp/o6Bx9J6jMXyvwDt6J98bvp3vDT+f3zjmK/CEd+U1jX3e7q8j9X7UCSg5L9ws4OWlqKBm1BRy0oh6IqgIo6yiKnBG0gQVVAQU4MWxyDeN3znWNPEX1Ee1NMzzjf3DkcaRsoLG8OSRxvB7RaFnSWFghhz1TxBH0zg50jRGjjSGVXM0jREHfF3+SeU6uL7AG3473xvuO+wZzTvgGf5LS19I6kXRJ+DyDH/cGZx+XVVaBFbSI6C0R1hlvQqogaoaQXvUN07QACywo40Tb2dZ6E44Bgbef7RpbOsR79jbACQNqMy4wBsGaEm+dzTKChrDJN8z+kqeZ+TbDkJSDy1FYym7Qh5wNo/fglu1erkqgAlqiiaroDS8qKbHmieIYrIKqqOuRwHMCKAIqtaPEUUFm8YUFXQ0hUcBSJlTcVRPP3TEM1pY0Bj+X1BZVl1VeL1hckSBNBpQHrTsGkB8tHma5HvCP8hrGN4u87WlrmFOwNUyXqGkDRG1pVWUHtMwyoy5iqoDo56qopKC18LJzudgRWhpDwBCqC/whjczH18zdTjIgw5v+IkCz+h7rOKK1JQFU2+e5xklepbfOEbyLg//7JB3/NG0NPKA5gtLTfgnUNg29Tln8+Rdy4rKhnsLqmoHpIpCQog3CPOzPwhTX+SdhqNx5HePeMY6j/oniRLeOWFfD0x6XQ9Qdb1hhOTpWD4A3jBMDl8eOVfV9VLqhgzvG0WvFfrH/9vZIteiSjRFVaGlCic1tIvWPOEZNpVweMcfzfeM/JoGUXasgslTVx1QWYAPXx4BaCkbJYcvjfzoYP31T9Lfr9SYOgFny9QOuHOF6UAUoCbDPaQBtJrK5qd0qMexZTgpcDHkF3hHCRgCWdA4Rgq8I2prLd8T3gF7PNW1A06AVQun3DzfMwavezOvYfQb1LctNYQTgFzvmH/iZQ20MQArzk8hX9XPUe2EFSEVeQA1zzt6G84hr3EkvzBwU4FbCKsS2vVDP62oVmDlvebQpWEClucdJ4c8I4+lyKVO4JhvbIsr9IxhH1VRVBPVPguqCqdBbmoU+vXUVAQqu0cDesQ3QfI8I2P53vBcUWU53MspKg0pwon+4KVhIrIDl4bJ4Ybh71DfwqU7hJ7jscbxO7zKH1MAWxTVJmhZEM3MaWi5YwloafCsjhFU8CJQuXv1N8jB+hvkcMMYOVA/9OWlS27kkzt8k9+frcbZVhTO9cM9KKyqqlS+aaSg7P6covKb/DKQcoGkCykJOK3mpyzINKCmIY0ACpCiHai/QaLs0g1y4OLQmzmXej67pCF2NI23aBV2foGFnBOBlQFT7xohsHGEFeBFYLmKaaSyFKhCYOuHQHG1BhDXD40tcYDH7mKumihqCtAmK6BRSqqoKwMmA+r+i0OEtdyLQwTsYEOY5NQNnV+SEOc3hlc5Q88YNvzZkM/O511RJat+NpRbnaOimg7/oLaxKGoEXBZWmCOwfH/j3X11A19achAXNITHIf9lgaTnCCd4vXButC5UU0k47cpP6ZBvB6B8RVVCuzbcU6pqHlAOwHVDJLduUDF4v5y6wcklBbDDP/Bb8JyqBtZ45KdxAvZQ5E7WQqsp5K0ssHwV5UBKK28EVoQW/L7aOTvsmSD7avtWLhmIDzeO/FW+d/SekXry9oWKuogLqIVT01klpeFkAaVh1Y4HyL5asEGy70L/C3v84Q8tCYjzPaMr8r2j93mA8tYWGlpQVMUid6TsCP+Yr0aDa72oklZXA0XVQjqntLPrCK3W59QO3s+p7v+bJQFwgWckH0G1A067ctSFDvlsuIe5NJT0tfMAKChtDtqFAZLD2L7aIZJ9bqB9SQCc5xm9xAU3TikAq6ime6g2VPvxyk+tqOlsWiAGlgY4+0I/ATvoGSNZVV2/nfQQ5zWMDtEPnbBjqy0o+nWopqbhtKkdleiAitSUBydCqvHn+0k2ZbkXb5Ds2sHcpAf4cMPofyC0NHRWx6CoAKql3JQDbHReKm5N0bBCyMdUwHT4n6fQbxT+EVgNnBFV1axRsNLg0uO95/uHk/6PgR++NPyaWVhRUS1BKh3yxaAimLRfkpCe6yN7dSz7XN+r+6t7P5rUKnz48shtPYAxP7UU+vHePwMsX1GNYaXhjKmgqh0kuWhMD9VqjjofKQCtpPRYD1ZY38NazfW7e2uH/iCpAT50+cZtVFTToDJwQjuKD+jibEeZKaA04d1iyAdQTQEaDSzZU3NdtZzaQbL7TM/jSQ3wgfobrwvBRUip/BQh1QIrhvTAxSF47M96Tqq0pgZJ7kVtsx9V07jhr+2VIpzoQUWV/JRpSWFOCh4hzeEBCmsyeWkk3GfrhH1UUa6iArAUoEbj7AuDZG/N9YNJDfDBS8MvawBGYCMeYY32+sDSeSmO6RRAahxTEQUNf31gEzbkGyiqEbCwv5uyvecHyK6aXm+SAzw0qVVScT4KVT6qKXpLOSkACmqKZnc+Co1+CTVFVdV4CSVFtcWQz1NUVFOuN6GkCC4Npzqu7iW7dWxPTR/shZMa4AP1Q0EFSuopKXqOCkp7KQU1uBtlHPLxtqm+kiohX3BHCgHWwMkL/5LAIqw8z4WUVtQ4AMuCrChydc+LSQ3wwfqhMrp3iqDaASnmp8Z+aUKqqigV9lkIZea7qnsJazvPXlPWdp7teTWpAd5X27/JNKygrjHlqPrA2pKfmiyoeIoKa0JVtUNRdUK/CFoWVJgDrDyL7L2S1ADn1g8+lntx6D0NxBw4oXdqrKTi4kk25NMVPzf8L5aQP8+A8qCFtayI7azuJVlnum8mNcB76vt+L7du8A6rqHKwioG1RU0lYY2ph2qHmkIaYBJYM2pqBKsC7ZkekkXZLMDX2pIaYPhwORcGfpJbN8RRWIlQb1Dtx0NN7Q733Nw0AQGlYVXHp3tIVsR2VV8nWae7i5IS4JxLPR/Oqu16+GDtjYdz6wdrDlwajQCsD61sCsAN+3T1L6Gqenkprs97fmoBWFBgVlX1lFO0jimACiWlqtw1ClqEd8fpHrKz+jrZcaq7ZPeZvsezTl37Bms7T3U/lnWm68s7q3s/s6Gi7ZHcC20fSeiHf+ALzantP7jvQn9vbt3gD3NrB27vqx24O9vSMv/MKRdUCTiNwr3diso2+FWFTbCQz4UT4NUBFCCdtW6y4zTfdp6FH6rrXMs6e51kne0l209dJdtOXn1z28mrL2+rujq87dRV1/aT3V9ICOU+4Bn+eE5d3z/vqx2YOuQZI/vrh1WllclRuZCaVFMjYBeLmooqfj1FVdUUCisjJcV9Btg5UAFYPqgy69tPdROwbScVYHX9jjPXyK6aAbL1ZNePtpzsXJNV1fXwgsCcc6G/NOfCwP9gfouNfdovNkBV9aR7pxbCPRvqrcAJ0KqAInxGnoET1HUOUOtwAsCygIoA3vp0F0FTrjvVA/OfbX2683y8/kL8A9kXBr+Vc37grf31I9zbqUJobUgBhIpq8oEU3duoJsM/Lz+1Aq0KbAIpqoyqykKL8LJ+++kesqWqk2yr6lzpcMj9P0VMqzYUZjnn+gdnAZ17ekoDbAICylVVk4DyFDUmQI2UFPeFihqfkB8rnCys7BzA1VrXzS1lPb9jGlDRC/ZXD/159vm+V+EZUBVYG2BNFVTa3qq4oDKfAoB6asO/cY4af2AZgJ/uIpsrO9/YWtX1FRGT0nt7a4b+JftC/ztKz5UDLbaeeN7ucG+HmvLCvV6RJFo3He45ampXjmp3fsqqpOxcq6QMmFFKa7Bf2fHulhPtGdKg8i7Mrun/ZjY8bE2BywMV1+wGdim3qPQqf4QVvUgxjfZkwRRdZwu0lR1kS8Q2V3YQtG0ne8jGyo4VPDYN17LPDX5977m+OwgneLsBtUNRbc9PYyigUoqqo6o6gCKoIr+psuPexsr27xsCS1+wv7r3M3tr+n4pBDZJ7/Hr9lM5KcBci8paQYUqit5IMUX7IpWU3ZtPNRVBinubKjoIzzZWdNzZUtnB/X/t0dwqY/jDbXvO9f1UUVwTkHLVdIF6qKn8dK7fSsObiIBurOgg0XaFbKygrYOsr2i/vb68+xNRwLILe6qvF2F/VOS5wNrQnhIVTnp7KrDYfjLyQjU1X+1jvqoo6Um5O1KLQk2h8Iol/HMUNRpWAJiGlRmfuEI2RmzTifZqllfNfGfdtT/LrRtRfzs1USBVAbUtP7UW8umWFMAqgtBoj1ZGq+NEVFRIAaIhZaBkgaUgRVg3nGgnrG051UM2lLf+nQZanCzz+9+3u+b685D3quBaVFR4VhQtpoa/LLBCRbUG61xeCqAmCaw2KCoNJx9WeUUVwcrCq87L23+c4aj7IHKr+t1nev9+d3XvPdGD07yKXy+si9ZVRTUK9bgvBDTGkC/5EIqeolpVT/Z1tqgpBSgWRrJep3jiqOk8A4rKW95GNlC2vryNROx+5lPt/6SCi4PdNdeuQc4LkCLECKwIRt4eAgp7ulU9woleAOlse8o6qBj69SCUWWeBszK3BVLMSas61X4p5KkyoAKkm8Eq56p9WlHnxhjydWDFkA+pQGSsKiQCaOQRTrguMkZIYY7jKH+inawvb30GuVX8jnM9n825OKI+MM2DUrSGwNoBq9EzqFgw6fm50C9+rE8ErRU42dfYAqvNirogIR9BRmAZWKMA5cC77qk2Qtvmk9dIZkXr3F+JzzrbU7/7XB/3t09VOG1SUz3wTK0rYd8aoCxoVueJAKiiphFVtQQnpaCWlZRSUFRSoYIygNJgrmdAhb1MtOOtJDNi68qvkIzjwQ5FfTdVX3lo1+men6DCmgaWE/qT7Y4UQG4LsBj+JUM+nRbI56gY/jkeQz/lTYd+DrAyKorX0MCyYxVWgJYCVmf8WsaJ0MfS9pwf+NOsM9feEYZ/DqSx3oVCxcWQH/nVE0utKasqSr/OFkBTIV8T6llA9RRVB1BdiDPKWklmWevdte72L6TtPNv9j7O/Ik092icE1noxhbCK8k+jPRo6q2O7YZUtohaLolpNAVhgTSqqEFiAlrbM4+0wX5WWdbqnEH45L9biCRQVAQU1taqoVqGkX2c3oDR4smM25M9V+GyjnxPqsdFPhfpEyFF1ATUO96bgpEFVx6UhkkFZZlkbySwNnU7bcbr7CqQPGNJlPcJqpJiifRq6WMa2ALvQ+WmCFVQsrHaGfxVKRlXVdQpUGlocry0NkrVlIZJe2jKetv3U1R/y1BcBXWg1BbDtBFRWQenrWDW1VPHboaZMKwqrfiyQRJ4HJL2mhvsFUFMEE70CKEDKsfTSIFHNHfxF2o7TV/+PDv9Jc9vUZkXlQysI/xxFhTTAdNXPgVYEKr1HA8obL0poaYBLgyRNFOLZvVjCPP1aOxV1wQooDqCm4eS0pGwvoGJQVOgOqGFdL9zDukzI56gpKKyqpkbjkgBJj9iakgBB0wWYBi6WsS2wxtCeglSATQESqaCiFVM05ikovZYoasoL+/RarMAq4LoDZE3E0rY+ffX+ggMaCfd03ik7ZuHkh3qde/pY7XPUNJHCvQqnXIOfW/FLKWm81BTUlqOmqKoIp4xP21LV+boZgBdaUXnAWoLWjqKKkwKIVJTdoxWUHScdtCJgISWgVFVm/KQ7QJ50t7yXtrWq6ybkugixLYDaXEAtWMhfAgUUHd7ZsS3h3gKcAPAsoJR3tZAnNRaA+StpW6o6GgDemMCNC7CCin+e1DRVUOkUWToFFZufyigpF1YAWAMrC2+LAvjq4kB32taqjt1bT14VA2xjjspXUwGcCZ6fQuhXw30MFb8dOSqroOzcrKKqOSlV9ctCSV8XpaYygDIAr3a1ELRVxc1ktTtAVhc3F6ZtPnHlq1Hqm6SKyuagojmbk9JzFdgYiirpFpVBYcVCys6loBUpqoUUIFZgEVT0ACxrq10BsqrI9820DVVdv7+5ouOXVqt+vqIaVP12hPwY8lMAlwaSHauAJpmiQuUfpaomiyfLId9AUVlAefPVoLxz9vbywqY/SXM4yIObKjt+wAOYV/HzgTWXAiRSwx/gjRuwC9jwV8G1A1gGRlG+iiqKngcmb40CVYE26hqn/+Wsqq4PzD7UXtF+YOvJa0rD3zSg86SmsgUUq57sPG5wGoR6uFvFhnd6LhXqqf4pV00XINwDvAgn+CjQOOEfrmEBhTn92pVFfqJnq91BsqKouVz9vbhlDv9vbqjsuD8Lrzk1TbaGfzxyU2lYKWBVBaXTAJNqys1NYyioaOBE41hg5UEMAC8r92v/Ss/Gyo6yTZWR3JVR1YQM+THkp9KQLsKQz4XURMjHdABVVQQmvWc3pAjuiiI/Uc3pU1R5hdN3UVVfHKwrafvchvL2dxMS1gSs9kFFbU8BTCpqrAUVQqqEfoPwzwMU1xDklZE0AOGz4lVYAVynL8qWO313lxX5v4Tcavz6E22BTZWd0Y/8xVDxszkpPVfz0xgAle6fGuSoNIzsOBXy5fNTI2hVQDlw8oCl1+AHZEVh44AGWnqyqbr6N9aXt/7czIPS8WhJmQ75XFhBMfULKYQU4MUx12PPtDQY3ZKiiyh6bKCsEPY1aooh30p+isVQjIqqgFjcrFtI6YGKgMI+DZ8t4yLfO084Qh+jmY0arz8eemJ9edt7ek1+WkF5Y1VVY8hRpVQ1HvmpzUWUBlKAEw2BlfQY+jF0y3gM9+jp1+jBKLOOwCregqqaAPv+8mNN6VHA8hbWPdXWsKnqKmH/0IQKZzxCvgbQ6Iem2TBPz7nKyVNWVFNQy9LYm/wqkAimFQWNQKxAGmk30bDxxgglzyvXF/nJKkFbSgSqCuj8wilUa+g6LHf6u3is6q5lPtU2qQI732rKDflzv4VKw8kbmwU2EVtSSiGF4d/A64JqIeTT8CYCrDxFXu70vaALqt7Gyoq2RzLLWl9bV97OfUAa8lI0qZAfA6RmAbWryc8N+ZJhHttR2OhXvAGYqK56gMI6XENDZ3acqJDywF1Z1EyWF/re+K4z8Id6nArX4VZdZlnrTxFU6WIqBlhBYW0B1qBwAjhZsysFMJujssAiyLbBOh8FVTxSikLf6+tK2j4ihNRoM6PU/6m1ZaGb6090an/BT5OjzoV7o1umVgBN1JCPikgDx45ZOKNeYzE3BeVdTGrKU1i9tVWuAFlR6H/xu06PNeXlQZ1REgpklIXu834DlZeX4potamqiJYWqmihqygJrNuTj9Sqsi1VNzSj2scZrPAZjXksvCXxvbWnwnYzjrepdKLOA2qGm3NzUYsWP4Z4FjVVSmPPUVPO6lJoKuwl6igvrkO+uKPTdXXW0cY3D4XgwZlj13mBPuf9D6WXBrvSS4Ltry1r181W6RQUKyhonB0X15PlkU9RkTgFEoLJ7yjk4fXdWFvqGljmYB3T0ILRjfUNJ8PPpJS01GWVtJOOpdi2gdsAZB0XVU1VVfVOKallRWVDZOeS5K+GxyELf5WUOD//ZBjtANXqPTe7ej6a7Au50d8uLa9zBt9JL4I+uhUh6SZCscYNJVvsmgVVDv8EtUxVGnRSA3sd804pXc1Qzud6SuDbyXK/S/muGH4i3Vzib/nN5UVPFsmL/w0Z8xW0fninOcIX+aI3L//gadyBvjTvY+qQ7+MLqkpZ3lPBvsn9qFlCj/NQKlPiaFJzRT4WxisqdFzb9eoXT99JKp79jRaHPseyo/+urHIE/5v5vsuJGauofSp1AAp3A/wPEMGBC+VivfAAAAABJRU5ErkJggg==;" parent="1" vertex="1">
          <mxGeometry x="320" y="488" width="69.02" height="40" as="geometry" />
        </mxCell>
        <mxCell id="qsRVk2a8_ZqIA5aBX3Mv-5" value="" style="shape=image;verticalLabelPosition=bottom;labelBackgroundColor=#ffffff;verticalAlign=top;aspect=fixed;imageAspect=0;image=data:image/png,iVBORw0KGgoAAAANSUhEUgAAALAAAABmCAYAAABr0BtsAAAZh0lEQVR4Ae2dC1Bc13nHsZM2idM0r3Gd9JE2fUwmk9RNpp02mWlnaqdJmkwfTiaKXhYCvV/oBUIvQCuxsAvICLBeIAmExC7swu4CAgRCvAQsb9mVndaxUzeO07oTK3HsOs5YknU632W/y7lnzz333LuXZVnWM99853F3xR5+/L/HveC0tNR/qRNIncDCnoDD4Xiw1D/5qaKW8UddwellxcFplys40+YOzdxyhaZuu0Mz99yhGRKx+yWt06+7Q9O33KHpVndw2lXSOvW9suDUFyvannsE3mthP03qX18yJ3AiMP1pBdbA9PMlrTMA5b3StmdJadszpKQV7CZCG+VhD66Ba0vbn4X9e254j+DMreLAdGFRYPrTS+YgUx80fidQHJz4pCsw8x1XcCZc3v0COX7lVhSclNpa2iu7cosc73yeuAKTQ8WhiScc/vAn4vcJU/9SUp6AwzHwfnfrdJUrNPMLt6Ke+uoqC7ArOE30rBj2QjMEfFFw6ueuwM3jSXmwqQ81vydQ1vNvHy4OzGx2haZ/BcooCyfvOj1YcR1g1bPSK7dIcWDyV8UtkxsdA//1wfn91Kl3T4oTcAen/9YdnH7NHZJTWwSR5/XAjFoPTJFigRXN7r1WEpr666Q45NSHsP8EHFemH3K1zpQe73iO6MHLgxTXoqAUKKsRrAAsz9ytz5CiwITDUTeQUmP7EVi871jhHX/EFZz+sSs4I8xPpSAVKCmAywNTXWuZJEUS5myZ+veqqq4PLN4TT33ltp1AUfPk11zBqbdAdVFNwUvBCtcJgFXB1ANXAlYaaGfzJAErCkwTp3/i7WP+ia/adhCpN1p8J1DcMvXt4uD0XUNYrUJqElCAFSGlfWHzBOGZE34wmqe+tfhOPvUVx3wCxa2TmWWdz0UrrVVYASazwEYUtbB5koABtDxQ9daO+WfBdjZP/WvMB5J6g8VzAkebb36tODB1nw3/8xXyZdRUBCmAqjHfODlGWVFwhhR5x79u93dgmd//PkfTyFeO+cbyHE1jnUeaxl4qaBp/o6Bx9J6jMXyvwDt6J98bvp3vDT+f3zjmK/CEd+U1jX3e7q8j9X7UCSg5L9ws4OWlqKBm1BRy0oh6IqgIo6yiKnBG0gQVVAQU4MWxyDeN3znWNPEX1Ee1NMzzjf3DkcaRsoLG8OSRxvB7RaFnSWFghhz1TxBH0zg50jRGjjSGVXM0jREHfF3+SeU6uL7AG3473xvuO+wZzTvgGf5LS19I6kXRJ+DyDH/cGZx+XVVaBFbSI6C0R1hlvQqogaoaQXvUN07QACywo40Tb2dZ6E44Bgbef7RpbOsR79jbACQNqMy4wBsGaEm+dzTKChrDJN8z+kqeZ+TbDkJSDy1FYym7Qh5wNo/fglu1erkqgAlqiiaroDS8qKbHmieIYrIKqqOuRwHMCKAIqtaPEUUFm8YUFXQ0hUcBSJlTcVRPP3TEM1pY0Bj+X1BZVl1VeL1hckSBNBpQHrTsGkB8tHma5HvCP8hrGN4u87WlrmFOwNUyXqGkDRG1pVWUHtMwyoy5iqoDo56qopKC18LJzudgRWhpDwBCqC/whjczH18zdTjIgw5v+IkCz+h7rOKK1JQFU2+e5xklepbfOEbyLg//7JB3/NG0NPKA5gtLTfgnUNg29Tln8+Rdy4rKhnsLqmoHpIpCQog3CPOzPwhTX+SdhqNx5HePeMY6j/oniRLeOWFfD0x6XQ9Qdb1hhOTpWD4A3jBMDl8eOVfV9VLqhgzvG0WvFfrH/9vZIteiSjRFVaGlCic1tIvWPOEZNpVweMcfzfeM/JoGUXasgslTVx1QWYAPXx4BaCkbJYcvjfzoYP31T9Lfr9SYOgFny9QOuHOF6UAUoCbDPaQBtJrK5qd0qMexZTgpcDHkF3hHCRgCWdA4Rgq8I2prLd8T3gF7PNW1A06AVQun3DzfMwavezOvYfQb1LctNYQTgFzvmH/iZQ20MQArzk8hX9XPUe2EFSEVeQA1zzt6G84hr3EkvzBwU4FbCKsS2vVDP62oVmDlvebQpWEClucdJ4c8I4+lyKVO4JhvbIsr9IxhH1VRVBPVPguqCqdBbmoU+vXUVAQqu0cDesQ3QfI8I2P53vBcUWU53MspKg0pwon+4KVhIrIDl4bJ4Ybh71DfwqU7hJ7jscbxO7zKH1MAWxTVJmhZEM3MaWi5YwloafCsjhFU8CJQuXv1N8jB+hvkcMMYOVA/9OWlS27kkzt8k9+frcbZVhTO9cM9KKyqqlS+aaSg7P6covKb/DKQcoGkCykJOK3mpyzINKCmIY0ACpCiHai/QaLs0g1y4OLQmzmXej67pCF2NI23aBV2foGFnBOBlQFT7xohsHGEFeBFYLmKaaSyFKhCYOuHQHG1BhDXD40tcYDH7mKumihqCtAmK6BRSqqoKwMmA+r+i0OEtdyLQwTsYEOY5NQNnV+SEOc3hlc5Q88YNvzZkM/O511RJat+NpRbnaOimg7/oLaxKGoEXBZWmCOwfH/j3X11A19achAXNITHIf9lgaTnCCd4vXButC5UU0k47cpP6ZBvB6B8RVVCuzbcU6pqHlAOwHVDJLduUDF4v5y6wcklBbDDP/Bb8JyqBtZ45KdxAvZQ5E7WQqsp5K0ssHwV5UBKK28EVoQW/L7aOTvsmSD7avtWLhmIDzeO/FW+d/SekXry9oWKuogLqIVT01klpeFkAaVh1Y4HyL5asEGy70L/C3v84Q8tCYjzPaMr8r2j93mA8tYWGlpQVMUid6TsCP+Yr0aDa72oklZXA0XVQjqntLPrCK3W59QO3s+p7v+bJQFwgWckH0G1A067ctSFDvlsuIe5NJT0tfMAKChtDtqFAZLD2L7aIZJ9bqB9SQCc5xm9xAU3TikAq6ime6g2VPvxyk+tqOlsWiAGlgY4+0I/ATvoGSNZVV2/nfQQ5zWMDtEPnbBjqy0o+nWopqbhtKkdleiAitSUBydCqvHn+0k2ZbkXb5Ds2sHcpAf4cMPofyC0NHRWx6CoAKql3JQDbHReKm5N0bBCyMdUwHT4n6fQbxT+EVgNnBFV1axRsNLg0uO95/uHk/6PgR++NPyaWVhRUS1BKh3yxaAimLRfkpCe6yN7dSz7XN+r+6t7P5rUKnz48shtPYAxP7UU+vHePwMsX1GNYaXhjKmgqh0kuWhMD9VqjjofKQCtpPRYD1ZY38NazfW7e2uH/iCpAT50+cZtVFTToDJwQjuKD+jibEeZKaA04d1iyAdQTQEaDSzZU3NdtZzaQbL7TM/jSQ3wgfobrwvBRUip/BQh1QIrhvTAxSF47M96Tqq0pgZJ7kVtsx9V07jhr+2VIpzoQUWV/JRpSWFOCh4hzeEBCmsyeWkk3GfrhH1UUa6iArAUoEbj7AuDZG/N9YNJDfDBS8MvawBGYCMeYY32+sDSeSmO6RRAahxTEQUNf31gEzbkGyiqEbCwv5uyvecHyK6aXm+SAzw0qVVScT4KVT6qKXpLOSkACmqKZnc+Co1+CTVFVdV4CSVFtcWQz1NUVFOuN6GkCC4Npzqu7iW7dWxPTR/shZMa4AP1Q0EFSuopKXqOCkp7KQU1uBtlHPLxtqm+kiohX3BHCgHWwMkL/5LAIqw8z4WUVtQ4AMuCrChydc+LSQ3wwfqhMrp3iqDaASnmp8Z+aUKqqigV9lkIZea7qnsJazvPXlPWdp7teTWpAd5X27/JNKygrjHlqPrA2pKfmiyoeIoKa0JVtUNRdUK/CFoWVJgDrDyL7L2S1ADn1g8+lntx6D0NxBw4oXdqrKTi4kk25NMVPzf8L5aQP8+A8qCFtayI7azuJVlnum8mNcB76vt+L7du8A6rqHKwioG1RU0lYY2ph2qHmkIaYBJYM2pqBKsC7ZkekkXZLMDX2pIaYPhwORcGfpJbN8RRWIlQb1Dtx0NN7Q733Nw0AQGlYVXHp3tIVsR2VV8nWae7i5IS4JxLPR/Oqu16+GDtjYdz6wdrDlwajQCsD61sCsAN+3T1L6Gqenkprs97fmoBWFBgVlX1lFO0jimACiWlqtw1ClqEd8fpHrKz+jrZcaq7ZPeZvsezTl37Bms7T3U/lnWm68s7q3s/s6Gi7ZHcC20fSeiHf+ALzantP7jvQn9vbt3gD3NrB27vqx24O9vSMv/MKRdUCTiNwr3diso2+FWFTbCQz4UT4NUBFCCdtW6y4zTfdp6FH6rrXMs6e51kne0l209dJdtOXn1z28mrL2+rujq87dRV1/aT3V9ICOU+4Bn+eE5d3z/vqx2YOuQZI/vrh1WllclRuZCaVFMjYBeLmooqfj1FVdUUCisjJcV9Btg5UAFYPqgy69tPdROwbScVYHX9jjPXyK6aAbL1ZNePtpzsXJNV1fXwgsCcc6G/NOfCwP9gfouNfdovNkBV9aR7pxbCPRvqrcAJ0KqAInxGnoET1HUOUOtwAsCygIoA3vp0F0FTrjvVA/OfbX2683y8/kL8A9kXBr+Vc37grf31I9zbqUJobUgBhIpq8oEU3duoJsM/Lz+1Aq0KbAIpqoyqykKL8LJ+++kesqWqk2yr6lzpcMj9P0VMqzYUZjnn+gdnAZ17ekoDbAICylVVk4DyFDUmQI2UFPeFihqfkB8rnCys7BzA1VrXzS1lPb9jGlDRC/ZXD/159vm+V+EZUBVYG2BNFVTa3qq4oDKfAoB6asO/cY4af2AZgJ/uIpsrO9/YWtX1FRGT0nt7a4b+JftC/ztKz5UDLbaeeN7ucG+HmvLCvV6RJFo3He45ampXjmp3fsqqpOxcq6QMmFFKa7Bf2fHulhPtGdKg8i7Mrun/ZjY8bE2BywMV1+wGdim3qPQqf4QVvUgxjfZkwRRdZwu0lR1kS8Q2V3YQtG0ne8jGyo4VPDYN17LPDX5977m+OwgneLsBtUNRbc9PYyigUoqqo6o6gCKoIr+psuPexsr27xsCS1+wv7r3M3tr+n4pBDZJ7/Hr9lM5KcBci8paQYUqit5IMUX7IpWU3ZtPNRVBinubKjoIzzZWdNzZUtnB/X/t0dwqY/jDbXvO9f1UUVwTkHLVdIF6qKn8dK7fSsObiIBurOgg0XaFbKygrYOsr2i/vb68+xNRwLILe6qvF2F/VOS5wNrQnhIVTnp7KrDYfjLyQjU1X+1jvqoo6Um5O1KLQk2h8Iol/HMUNRpWAJiGlRmfuEI2RmzTifZqllfNfGfdtT/LrRtRfzs1USBVAbUtP7UW8umWFMAqgtBoj1ZGq+NEVFRIAaIhZaBkgaUgRVg3nGgnrG051UM2lLf+nQZanCzz+9+3u+b685D3quBaVFR4VhQtpoa/LLBCRbUG61xeCqAmCaw2KCoNJx9WeUUVwcrCq87L23+c4aj7IHKr+t1nev9+d3XvPdGD07yKXy+si9ZVRTUK9bgvBDTGkC/5EIqeolpVT/Z1tqgpBSgWRrJep3jiqOk8A4rKW95GNlC2vryNROx+5lPt/6SCi4PdNdeuQc4LkCLECKwIRt4eAgp7ulU9woleAOlse8o6qBj69SCUWWeBszK3BVLMSas61X4p5KkyoAKkm8Eq56p9WlHnxhjydWDFkA+pQGSsKiQCaOQRTrguMkZIYY7jKH+inawvb30GuVX8jnM9n825OKI+MM2DUrSGwNoBq9EzqFgw6fm50C9+rE8ErRU42dfYAqvNirogIR9BRmAZWKMA5cC77qk2Qtvmk9dIZkXr3F+JzzrbU7/7XB/3t09VOG1SUz3wTK0rYd8aoCxoVueJAKiiphFVtQQnpaCWlZRSUFRSoYIygNJgrmdAhb1MtOOtJDNi68qvkIzjwQ5FfTdVX3lo1+men6DCmgaWE/qT7Y4UQG4LsBj+JUM+nRbI56gY/jkeQz/lTYd+DrAyKorX0MCyYxVWgJYCVmf8WsaJ0MfS9pwf+NOsM9feEYZ/DqSx3oVCxcWQH/nVE0utKasqSr/OFkBTIV8T6llA9RRVB1BdiDPKWklmWevdte72L6TtPNv9j7O/Ik092icE1noxhbCK8k+jPRo6q2O7YZUtohaLolpNAVhgTSqqEFiAlrbM4+0wX5WWdbqnEH45L9biCRQVAQU1taqoVqGkX2c3oDR4smM25M9V+GyjnxPqsdFPhfpEyFF1ATUO96bgpEFVx6UhkkFZZlkbySwNnU7bcbr7CqQPGNJlPcJqpJiifRq6WMa2ALvQ+WmCFVQsrHaGfxVKRlXVdQpUGlocry0NkrVlIZJe2jKetv3U1R/y1BcBXWg1BbDtBFRWQenrWDW1VPHboaZMKwqrfiyQRJ4HJL2mhvsFUFMEE70CKEDKsfTSIFHNHfxF2o7TV/+PDv9Jc9vUZkXlQysI/xxFhTTAdNXPgVYEKr1HA8obL0poaYBLgyRNFOLZvVjCPP1aOxV1wQooDqCm4eS0pGwvoGJQVOgOqGFdL9zDukzI56gpKKyqpkbjkgBJj9iakgBB0wWYBi6WsS2wxtCeglSATQESqaCiFVM05ikovZYoasoL+/RarMAq4LoDZE3E0rY+ffX+ggMaCfd03ik7ZuHkh3qde/pY7XPUNJHCvQqnXIOfW/FLKWm81BTUlqOmqKoIp4xP21LV+boZgBdaUXnAWoLWjqKKkwKIVJTdoxWUHScdtCJgISWgVFVm/KQ7QJ50t7yXtrWq6ybkugixLYDaXEAtWMhfAgUUHd7ZsS3h3gKcAPAsoJR3tZAnNRaA+StpW6o6GgDemMCNC7CCin+e1DRVUOkUWToFFZufyigpF1YAWAMrC2+LAvjq4kB32taqjt1bT14VA2xjjspXUwGcCZ6fQuhXw30MFb8dOSqroOzcrKKqOSlV9ctCSV8XpaYygDIAr3a1ELRVxc1ktTtAVhc3F6ZtPnHlq1Hqm6SKyuagojmbk9JzFdgYiirpFpVBYcVCys6loBUpqoUUIFZgEVT0ACxrq10BsqrI9820DVVdv7+5ouOXVqt+vqIaVP12hPwY8lMAlwaSHauAJpmiQuUfpaomiyfLId9AUVlAefPVoLxz9vbywqY/SXM4yIObKjt+wAOYV/HzgTWXAiRSwx/gjRuwC9jwV8G1A1gGRlG+iiqKngcmb40CVYE26hqn/+Wsqq4PzD7UXtF+YOvJa0rD3zSg86SmsgUUq57sPG5wGoR6uFvFhnd6LhXqqf4pV00XINwDvAgn+CjQOOEfrmEBhTn92pVFfqJnq91BsqKouVz9vbhlDv9vbqjsuD8Lrzk1TbaGfzxyU2lYKWBVBaXTAJNqys1NYyioaOBE41hg5UEMAC8r92v/Ss/Gyo6yTZWR3JVR1YQM+THkp9KQLsKQz4XURMjHdABVVQQmvWc3pAjuiiI/Uc3pU1R5hdN3UVVfHKwrafvchvL2dxMS1gSs9kFFbU8BTCpqrAUVQqqEfoPwzwMU1xDklZE0AOGz4lVYAVynL8qWO313lxX5v4Tcavz6E22BTZWd0Y/8xVDxszkpPVfz0xgAle6fGuSoNIzsOBXy5fNTI2hVQDlw8oCl1+AHZEVh44AGWnqyqbr6N9aXt/7czIPS8WhJmQ75XFhBMfULKYQU4MUx12PPtDQY3ZKiiyh6bKCsEPY1aooh30p+isVQjIqqgFjcrFtI6YGKgMI+DZ8t4yLfO084Qh+jmY0arz8eemJ9edt7ek1+WkF5Y1VVY8hRpVQ1HvmpzUWUBlKAEw2BlfQY+jF0y3gM9+jp1+jBKLOOwCregqqaAPv+8mNN6VHA8hbWPdXWsKnqKmH/0IQKZzxCvgbQ6Iem2TBPz7nKyVNWVFNQy9LYm/wqkAimFQWNQKxAGmk30bDxxgglzyvXF/nJKkFbSgSqCuj8wilUa+g6LHf6u3is6q5lPtU2qQI732rKDflzv4VKw8kbmwU2EVtSSiGF4d/A64JqIeTT8CYCrDxFXu70vaALqt7Gyoq2RzLLWl9bV97OfUAa8lI0qZAfA6RmAbWryc8N+ZJhHttR2OhXvAGYqK56gMI6XENDZ3acqJDywF1Z1EyWF/re+K4z8Id6nArX4VZdZlnrTxFU6WIqBlhBYW0B1qBwAjhZsysFMJujssAiyLbBOh8FVTxSikLf6+tK2j4ihNRoM6PU/6m1ZaGb6090an/BT5OjzoV7o1umVgBN1JCPikgDx45ZOKNeYzE3BeVdTGrKU1i9tVWuAFlR6H/xu06PNeXlQZ1REgpklIXu834DlZeX4potamqiJYWqmihqygJrNuTj9Sqsi1VNzSj2scZrPAZjXksvCXxvbWnwnYzjrepdKLOA2qGm3NzUYsWP4Z4FjVVSmPPUVPO6lJoKuwl6igvrkO+uKPTdXXW0cY3D4XgwZlj13mBPuf9D6WXBrvSS4Ltry1r181W6RQUKyhonB0X15PlkU9RkTgFEoLJ7yjk4fXdWFvqGljmYB3T0ILRjfUNJ8PPpJS01GWVtJOOpdi2gdsAZB0XVU1VVfVOKallRWVDZOeS5K+GxyELf5WUOD//ZBjtANXqPTe7ej6a7Au50d8uLa9zBt9JL4I+uhUh6SZCscYNJVvsmgVVDv8EtUxVGnRSA3sd804pXc1Qzud6SuDbyXK/S/muGH4i3Vzib/nN5UVPFsmL/w0Z8xW0fninOcIX+aI3L//gadyBvjTvY+qQ7+MLqkpZ3lPBvsn9qFlCj/NQKlPiaFJzRT4WxisqdFzb9eoXT99JKp79jRaHPseyo/+urHIE/5v5vsuJGauofSp1AAp3A/wPEMGBC+VivfAAAAABJRU5ErkJggg==;imageBackground=default;fillStyle=hatch;" parent="1" vertex="1">
          <mxGeometry x="780" y="488" width="69.02" height="40" as="geometry" />
        </mxCell>
        <mxCell id="qsRVk2a8_ZqIA5aBX3Mv-11" value="Route 1" style="text;html=1;align=center;verticalAlign=middle;resizable=0;points=[];autosize=1;strokeColor=none;fontStyle=1;fontColor=#6600CC;" parent="1" vertex="1">
          <mxGeometry x="319.51" y="263" width="70" height="30" as="geometry" />
        </mxCell>
        <mxCell id="qsRVk2a8_ZqIA5aBX3Mv-12" value="Route 2" style="text;html=1;align=center;verticalAlign=middle;resizable=0;points=[];autosize=1;strokeColor=none;fontStyle=1;fontColor=#6600CC;" parent="1" vertex="1">
          <mxGeometry x="550" y="263" width="70" height="30" as="geometry" />
        </mxCell>
        <mxCell id="qsRVk2a8_ZqIA5aBX3Mv-13" value="Route 3" style="text;html=1;align=center;verticalAlign=middle;resizable=0;points=[];autosize=1;strokeColor=none;fontStyle=1;fontColor=#6600CC;" parent="1" vertex="1">
          <mxGeometry x="779.51" y="263" width="70" height="30" as="geometry" />
        </mxCell>
        <mxCell id="qsRVk2a8_ZqIA5aBX3Mv-14" value="网络1" style="text;html=1;align=center;verticalAlign=middle;resizable=0;points=[];autosize=1;strokeColor=none;" parent="1" vertex="1">
          <mxGeometry x="329.51" y="538" width="50" height="20" as="geometry" />
        </mxCell>
        <mxCell id="qsRVk2a8_ZqIA5aBX3Mv-15" value="网络2" style="text;html=1;align=center;verticalAlign=middle;resizable=0;points=[];autosize=1;strokeColor=none;" parent="1" vertex="1">
          <mxGeometry x="789.51" y="538" width="50" height="20" as="geometry" />
        </mxCell>
        <mxCell id="CtKdw9nDHlDaygib66Zo-3" value="描述" parent="0" />
        <mxCell id="CtKdw9nDHlDaygib66Zo-4" value="Gi 0/0&lt;br&gt;192.168.100.1/24" style="text;html=1;align=left;verticalAlign=middle;resizable=0;points=[];autosize=1;strokeColor=none;" vertex="1" parent="CtKdw9nDHlDaygib66Zo-3">
          <mxGeometry x="384.51" y="298" width="110" height="30" as="geometry" />
        </mxCell>
        <mxCell id="CtKdw9nDHlDaygib66Zo-5" value="Gi 0/1&lt;br&gt;192.168.200.1/24" style="text;html=1;align=left;verticalAlign=middle;resizable=0;points=[];autosize=1;strokeColor=none;" vertex="1" parent="CtKdw9nDHlDaygib66Zo-3">
          <mxGeometry x="615.75" y="298" width="110" height="30" as="geometry" />
        </mxCell>
        <mxCell id="CtKdw9nDHlDaygib66Zo-6" value="Gi 0/0&lt;br&gt;192.168.100.2/24" style="text;html=1;align=right;verticalAlign=middle;resizable=0;points=[];autosize=1;strokeColor=none;" vertex="1" parent="CtKdw9nDHlDaygib66Zo-3">
          <mxGeometry x="440" y="328" width="110" height="30" as="geometry" />
        </mxCell>
        <mxCell id="CtKdw9nDHlDaygib66Zo-7" value="Gi 0/0&lt;br&gt;192.168.200.2/24" style="text;html=1;align=right;verticalAlign=middle;resizable=0;points=[];autosize=1;strokeColor=none;" vertex="1" parent="CtKdw9nDHlDaygib66Zo-3">
          <mxGeometry x="670" y="328" width="110" height="30" as="geometry" />
        </mxCell>
        <mxCell id="CtKdw9nDHlDaygib66Zo-8" value="Gi 0/0&lt;br&gt;10.1.1.1/24" style="text;html=1;align=left;verticalAlign=middle;resizable=0;points=[];autosize=1;strokeColor=none;" vertex="1" parent="CtKdw9nDHlDaygib66Zo-3">
          <mxGeometry x="361" y="358" width="80" height="30" as="geometry" />
        </mxCell>
        <mxCell id="CtKdw9nDHlDaygib66Zo-9" value="10.1.1.0/24" style="text;html=1;align=left;verticalAlign=middle;resizable=0;points=[];autosize=1;strokeColor=none;" vertex="1" parent="CtKdw9nDHlDaygib66Zo-3">
          <mxGeometry x="360" y="463" width="80" height="20" as="geometry" />
        </mxCell>
        <mxCell id="CtKdw9nDHlDaygib66Zo-10" value="Gi 0/1&lt;br&gt;10.2.2.1/24" style="text;html=1;align=right;verticalAlign=middle;resizable=0;points=[];autosize=1;strokeColor=none;" vertex="1" parent="CtKdw9nDHlDaygib66Zo-3">
          <mxGeometry x="725.75" y="358" width="80" height="30" as="geometry" />
        </mxCell>
        <mxCell id="CtKdw9nDHlDaygib66Zo-11" value="10.2.2.0/24" style="text;html=1;align=right;verticalAlign=middle;resizable=0;points=[];autosize=1;strokeColor=none;" vertex="1" parent="CtKdw9nDHlDaygib66Zo-3">
          <mxGeometry x="725.75" y="463" width="80" height="20" as="geometry" />
        </mxCell>
      </root>
    </mxGraphModel>
  </diagram>
</mxfile>
